<svg id="svg" version="1.1" xmlns="http://www.w3.org/2000/svg" xmlns:xlink="http://www.w3.org/1999/xlink" width="400" height="336.14678899082566" viewBox="0, 0, 400,336.14678899082566"><g id="svgg"><path id="path0" d="M180.990 82.675 C 180.347 83.738,179.650 84.912,179.441 85.282 C 179.232 85.652,178.231 87.393,177.215 89.151 C 176.200 90.908,174.497 93.860,173.433 95.711 C 172.368 97.561,171.230 99.529,170.904 100.084 C 166.345 107.849,165.609 109.336,166.324 109.336 C 166.583 109.336,167.756 109.919,168.931 110.632 C 179.104 116.803,179.659 116.852,182.191 111.803 C 182.670 110.848,183.354 109.803,183.709 109.481 C 184.065 109.158,184.357 108.691,184.357 108.442 C 184.357 108.194,184.584 107.990,184.861 107.990 C 185.326 107.990,185.521 107.413,185.395 106.409 C 185.367 106.188,185.652 105.842,186.028 105.641 C 186.404 105.440,186.712 105.077,186.712 104.834 C 186.712 104.592,187.014 104.120,187.384 103.785 C 187.754 103.450,188.057 103.034,188.057 102.860 C 188.057 102.687,188.360 102.160,188.730 101.690 C 189.100 101.219,189.403 100.606,189.403 100.326 C 189.403 100.046,189.933 99.019,190.580 98.043 C 191.228 97.068,191.758 96.124,191.758 95.945 C 191.758 95.767,192.039 95.547,192.383 95.457 C 194.619 94.873,193.363 92.705,186.578 85.438 C 185.449 84.229,184.037 82.678,183.442 81.990 C 182.112 80.455,182.376 80.381,180.990 82.675 M248.886 129.941 C 252.411 135.731,252.743 136.978,251.046 138.049 C 250.350 138.489,249.576 139.094,249.327 139.394 C 249.079 139.694,248.226 140.263,247.433 140.659 C 243.855 142.446,243.925 142.537,265.845 164.755 C 272.095 171.089,277.208 176.496,277.208 176.770 C 277.208 177.320,278.487 178.143,278.822 177.808 C 278.938 177.693,278.822 177.264,278.565 176.856 C 278.308 176.448,277.933 175.812,277.731 175.442 C 277.529 175.071,277.122 174.390,276.826 173.928 C 274.765 170.710,271.371 165.298,265.752 156.266 C 260.345 147.575,254.471 138.252,250.808 132.548 C 250.392 131.901,249.716 130.803,249.305 130.109 C 248.894 129.415,248.482 128.848,248.389 128.848 C 248.297 128.848,248.520 129.340,248.886 129.941 M140.046 154.163 C 138.941 156.060,137.005 159.352,135.746 161.480 C 133.428 165.397,131.626 168.501,127.917 174.974 C 126.792 176.937,125.822 178.829,125.761 179.179 C 125.655 179.798,126.374 179.817,152.091 179.901 C 181.967 179.998,178.734 180.315,180.479 177.124 C 180.985 176.198,181.556 175.249,181.748 175.013 C 181.940 174.777,182.018 174.504,181.920 174.406 C 181.822 174.309,181.390 174.804,180.960 175.508 C 178.855 178.953,177.146 179.549,175.136 177.539 C 174.815 177.218,174.357 176.955,174.117 176.955 C 173.878 176.955,173.321 176.676,172.880 176.334 C 172.438 175.992,171.689 175.618,171.214 175.502 C 170.740 175.386,170.000 174.987,169.571 174.615 C 169.142 174.243,168.281 173.754,167.659 173.529 C 167.036 173.304,166.526 172.999,166.526 172.851 C 166.526 172.703,166.186 172.581,165.770 172.580 C 165.353 172.579,164.029 171.899,162.826 171.068 C 161.623 170.238,160.383 169.557,160.070 169.556 C 159.757 169.555,159.405 169.399,159.288 169.209 C 159.171 169.019,157.781 168.252,156.200 167.504 C 154.618 166.757,152.569 165.625,151.645 164.990 C 150.722 164.355,149.605 163.835,149.163 163.835 C 148.721 163.835,148.360 163.721,148.360 163.581 C 148.360 163.441,147.623 162.988,146.722 162.575 C 145.821 162.162,144.894 161.595,144.662 161.316 C 144.430 161.036,143.977 160.807,143.654 160.807 C 143.332 160.807,142.704 160.521,142.260 160.172 C 141.816 159.822,140.887 159.300,140.196 159.012 C 138.549 158.323,138.601 157.997,141.162 152.986 C 142.852 149.680,142.353 150.205,140.046 154.163 " stroke="none" fill="#ce3d1b" fill-rule="evenodd"></path><path id="path1" d="M198.561 53.238 C 198.158 54.024,197.463 55.273,197.017 56.013 C 196.572 56.754,195.037 59.403,193.608 61.901 C 192.178 64.399,190.746 66.897,190.425 67.452 C 190.104 68.007,188.891 70.126,187.729 72.161 C 186.567 74.197,185.309 76.392,184.933 77.040 C 183.748 79.085,183.352 79.889,183.349 80.250 C 183.346 80.856,209.415 106.813,210.608 107.391 C 211.712 107.926,211.764 107.918,212.500 107.124 C 212.916 106.675,213.482 106.308,213.757 106.308 C 214.033 106.308,214.352 106.156,214.466 105.971 C 214.580 105.786,215.043 105.635,215.495 105.635 C 215.947 105.635,216.316 105.484,216.316 105.299 C 216.316 105.114,216.156 104.962,215.960 104.962 C 215.764 104.962,215.697 104.811,215.812 104.626 C 215.926 104.441,216.393 104.289,216.849 104.289 C 217.424 104.289,217.777 104.032,217.998 103.448 C 218.174 102.986,218.531 102.607,218.792 102.607 C 219.052 102.607,219.345 102.304,219.441 101.934 C 219.559 101.485,219.900 101.262,220.470 101.262 C 220.939 101.262,221.416 101.110,221.531 100.925 C 221.645 100.740,222.032 100.589,222.392 100.589 C 222.781 100.589,223.045 100.359,223.045 100.018 C 223.045 99.182,224.733 97.561,225.603 97.561 C 227.411 97.561,227.681 96.838,226.393 95.450 C 226.087 95.121,225.639 94.251,225.397 93.515 C 225.154 92.780,224.828 92.178,224.673 92.178 C 224.517 92.178,224.390 91.951,224.390 91.674 C 224.390 91.396,224.239 91.169,224.054 91.169 C 223.869 91.169,223.717 91.019,223.717 90.836 C 223.717 90.653,223.036 89.440,222.204 88.141 C 221.371 86.842,220.690 85.715,220.690 85.636 C 220.690 85.557,219.857 84.166,218.839 82.545 C 217.822 80.924,216.989 79.470,216.989 79.314 C 216.989 79.158,216.711 78.731,216.370 78.365 C 216.030 78.000,215.539 77.287,215.279 76.782 C 214.727 75.705,211.882 71.023,204.704 59.378 C 203.449 57.342,201.898 54.807,201.256 53.743 C 199.862 51.430,199.520 51.366,198.561 53.238 M165.369 111.659 C 164.879 112.435,164.303 113.479,164.089 113.978 C 163.875 114.478,163.450 115.265,163.145 115.728 C 162.839 116.190,161.850 118.007,160.945 119.765 C 160.041 121.522,159.196 123.038,159.069 123.133 C 158.332 123.685,158.637 125.990,159.462 126.101 C 159.924 126.163,160.447 126.352,160.622 126.521 C 160.798 126.691,161.264 126.829,161.657 126.829 C 162.050 126.829,162.728 127.208,163.162 127.670 C 163.597 128.133,164.195 128.511,164.492 128.511 C 164.789 128.511,165.251 128.814,165.517 129.184 C 165.798 129.573,166.388 129.857,166.917 129.857 C 167.421 129.857,167.926 130.008,168.040 130.193 C 168.155 130.378,168.588 130.530,169.003 130.530 C 169.425 130.530,170.263 131.050,170.900 131.707 C 171.670 132.502,172.348 132.885,172.984 132.885 C 173.503 132.885,173.928 133.036,173.928 133.221 C 173.928 133.406,174.131 133.558,174.381 133.558 C 175.078 133.558,176.777 134.485,177.458 135.237 C 178.562 136.458,179.454 136.003,178.480 134.715 C 178.208 134.356,177.981 133.790,177.975 133.457 C 177.965 132.899,177.290 131.320,176.364 129.689 C 176.154 129.319,175.618 128.259,175.173 127.334 C 174.729 126.409,173.758 124.516,173.017 123.129 C 172.276 121.741,170.591 118.486,169.272 115.896 C 166.078 109.623,166.420 109.994,165.369 111.659 M227.670 129.318 C 226.981 129.566,226.745 129.875,226.745 130.532 C 226.745 131.072,226.354 131.788,225.736 132.380 C 225.181 132.912,224.727 133.550,224.727 133.797 C 224.727 134.045,224.348 134.391,223.886 134.567 C 223.377 134.760,223.045 135.151,223.045 135.558 C 223.045 135.927,222.742 136.768,222.372 137.426 C 222.002 138.085,221.699 138.847,221.699 139.119 C 221.699 139.391,221.396 139.613,221.026 139.613 C 220.652 139.613,220.353 139.837,220.353 140.118 C 220.353 140.395,220.483 140.622,220.641 140.622 C 220.799 140.622,221.317 140.983,221.793 141.424 C 222.616 142.187,228.011 146.005,228.266 146.005 C 228.332 146.005,231.433 147.973,235.156 150.378 C 238.878 152.784,242.014 154.752,242.125 154.752 C 242.235 154.752,242.794 155.107,243.366 155.541 C 243.939 155.974,244.569 156.391,244.767 156.466 C 244.964 156.541,247.160 157.904,249.645 159.495 C 255.354 163.151,265.464 169.519,267.452 170.710 C 268.284 171.210,269.798 172.137,270.816 172.771 C 274.596 175.128,273.398 173.673,262.835 163.078 C 256.885 157.111,247.500 147.687,241.979 142.136 C 228.673 128.759,228.831 128.901,227.670 129.318 M52.471 210.190 L 50.274 210.288 45.824 223.815 C 40.478 240.066,40.650 238.573,44.146 238.449 L 46.913 238.352 47.595 236.341 C 48.502 233.663,48.947 233.467,53.868 233.572 C 58.416 233.670,58.569 233.749,59.587 236.539 L 60.309 238.520 63.123 238.520 C 66.014 238.520,66.165 238.435,65.622 237.106 C 65.449 236.681,63.764 231.564,61.879 225.736 C 57.695 212.797,56.827 210.269,56.559 210.233 C 55.699 210.121,54.351 210.107,52.471 210.190 M77.120 210.156 L 74.677 210.290 74.765 224.321 L 74.853 238.352 77.266 238.450 L 79.678 238.548 79.789 234.008 C 79.912 228.922,79.980 228.767,82.173 228.520 C 84.325 228.277,85.370 228.960,86.782 231.531 C 87.437 232.725,88.579 234.784,89.319 236.108 L 90.664 238.515 93.429 238.518 C 96.783 238.520,96.816 238.984,93.004 232.632 C 92.116 231.152,91.094 229.343,90.734 228.613 L 90.079 227.284 90.959 226.528 C 91.442 226.112,92.036 225.650,92.279 225.501 C 94.717 224.008,95.696 219.954,94.505 216.288 C 92.778 210.971,88.669 209.522,77.120 210.156 M124.727 210.170 L 122.792 210.294 122.779 211.539 C 122.765 212.735,122.772 237.750,122.786 238.267 C 122.789 238.406,123.852 238.520,125.147 238.520 C 126.442 238.520,127.521 238.406,127.545 238.267 C 127.569 238.129,127.632 234.382,127.685 229.941 C 127.738 225.500,127.794 221.618,127.810 221.314 C 127.932 218.966,129.555 220.446,132.953 226.005 C 134.488 228.516,136.813 232.322,138.119 234.461 L 140.493 238.352 142.734 238.451 C 145.593 238.577,145.375 239.849,145.259 223.717 L 145.164 210.429 142.860 210.261 C 139.814 210.038,140.034 209.459,140.012 217.770 C 139.986 227.298,139.451 228.061,136.393 222.935 C 135.491 221.422,133.954 218.931,132.978 217.398 C 132.002 215.865,131.203 214.538,131.203 214.449 C 131.203 214.360,130.640 213.419,129.953 212.358 C 129.266 211.297,128.699 210.409,128.692 210.384 C 128.640 210.195,126.310 210.069,124.727 210.170 M171.320 210.200 L 170.563 210.308 170.563 224.414 L 170.563 238.520 172.882 238.520 C 175.705 238.520,175.610 238.696,175.610 233.487 C 175.610 228.532,175.482 228.665,180.470 228.428 C 184.007 228.260,184.343 228.181,186.130 227.098 C 192.017 223.530,191.606 214.119,185.431 211.047 C 184.257 210.463,173.861 209.839,171.320 210.200 M273.255 210.193 C 272.098 210.248,271.152 210.327,271.152 210.369 C 271.152 210.617,273.388 218.967,275.204 225.500 C 275.780 227.573,276.682 230.934,277.208 232.969 C 278.762 238.974,278.394 238.520,281.700 238.520 C 285.349 238.520,284.743 239.742,288.821 224.135 C 290.315 218.418,291.495 218.079,292.738 223.010 C 293.046 224.232,293.613 226.367,293.998 227.754 C 294.382 229.142,295.180 232.132,295.771 234.399 L 296.844 238.520 299.965 238.520 L 303.085 238.520 303.473 237.090 C 303.686 236.304,303.977 235.282,304.120 234.819 C 304.263 234.357,304.539 233.373,304.735 232.632 C 306.564 225.702,308.268 219.360,308.487 218.671 C 308.633 218.209,308.910 217.225,309.102 216.484 C 309.294 215.744,309.749 214.041,310.112 212.700 L 310.772 210.261 307.827 210.261 L 304.881 210.261 304.509 211.690 C 304.304 212.477,303.381 216.213,302.459 219.992 C 299.952 230.265,299.495 230.253,296.671 219.849 C 296.470 219.108,296.177 218.124,296.020 217.662 C 295.863 217.199,295.338 215.384,294.854 213.627 C 293.758 209.656,294.448 210.009,288.246 210.252 C 287.980 210.262,286.567 214.800,284.108 223.542 C 282.737 228.418,281.498 228.878,280.590 224.850 C 280.345 223.764,279.960 222.271,279.733 221.531 C 279.507 220.791,278.809 217.964,278.182 215.249 C 276.889 209.648,277.235 210.003,273.255 210.193 M105.593 210.345 C 105.450 210.635,105.343 237.153,105.483 237.777 C 105.646 238.506,105.789 238.543,108.084 238.450 L 110.513 238.352 110.601 224.306 L 110.689 210.261 108.162 210.261 C 106.772 210.261,105.616 210.299,105.593 210.345 M202.091 215.221 C 201.205 217.951,199.199 224.091,197.633 228.864 C 194.131 239.539,194.142 238.570,197.526 238.449 C 200.547 238.342,200.583 238.317,201.190 235.887 C 201.677 233.936,202.796 233.474,207.032 233.474 C 211.751 233.474,212.238 233.735,213.125 236.754 L 213.644 238.520 216.494 238.520 C 219.709 238.520,219.640 238.603,218.691 235.863 C 218.331 234.826,217.645 232.691,217.165 231.119 C 216.685 229.546,216.158 227.956,215.993 227.586 C 215.828 227.216,214.486 223.204,213.011 218.671 L 210.329 210.429 207.015 210.343 L 203.701 210.256 202.091 215.221 M228.409 211.859 C 228.187 231.286,228.162 237.445,228.302 237.931 C 228.459 238.473,229.185 238.520,237.365 238.520 L 246.257 238.520 246.257 236.018 L 246.257 233.516 240.218 233.411 C 236.471 233.345,234.040 233.167,233.815 232.941 C 233.569 232.695,233.450 228.954,233.446 221.419 L 233.440 210.261 230.934 210.261 L 228.427 210.261 228.409 211.859 M255.757 224.306 L 255.845 238.352 258.368 238.352 L 260.892 238.352 260.979 224.306 L 261.067 210.261 258.368 210.261 L 255.670 210.261 255.757 224.306 M320.157 219.421 C 318.523 224.467,316.516 230.563,315.698 232.969 C 313.696 238.857,313.615 238.520,317.029 238.520 L 319.844 238.520 320.401 236.536 C 321.165 233.811,321.359 233.705,325.760 233.590 C 331.273 233.447,332.227 234.002,332.789 237.679 C 332.904 238.425,338.772 238.945,338.772 238.208 C 338.772 238.023,337.617 234.345,336.205 230.037 C 334.794 225.729,332.770 219.554,331.709 216.316 L 329.779 210.429 326.454 210.337 L 323.129 210.246 320.157 219.421 M347.524 223.970 C 347.527 231.510,347.651 237.871,347.800 238.105 C 348.009 238.435,350.039 238.511,356.794 238.441 L 365.517 238.352 365.517 235.997 L 365.517 233.642 359.630 233.474 C 356.392 233.381,353.553 233.183,353.322 233.033 C 353.000 232.824,352.902 230.142,352.902 221.511 L 352.902 210.261 350.210 210.261 L 347.519 210.261 347.524 223.970 M88.842 216.237 C 90.637 218.248,89.904 222.519,87.615 223.389 C 85.668 224.129,80.809 223.799,80.210 222.885 C 79.475 221.762,79.626 215.799,80.404 215.283 C 81.751 214.388,87.802 215.073,88.842 216.237 M183.351 215.531 C 185.357 216.716,185.744 220.552,184.048 222.451 C 182.842 223.801,177.292 224.343,176.169 223.219 C 175.472 222.522,175.344 216.044,176.013 215.374 C 176.661 214.727,182.190 214.845,183.351 215.531 M54.641 219.765 C 54.898 220.366,55.270 221.463,55.468 222.204 C 55.665 222.944,56.089 224.430,56.409 225.506 C 57.201 228.166,56.917 228.565,54.139 228.698 C 49.759 228.906,49.749 228.882,51.462 222.564 C 52.610 218.329,53.641 217.422,54.641 219.765 M208.160 219.596 C 209.794 224.096,210.496 227.721,209.857 228.360 C 209.390 228.827,204.953 228.908,204.250 228.462 C 203.571 228.032,204.421 223.369,205.875 219.543 C 206.344 218.311,207.705 218.342,208.160 219.596 M328.169 221.615 C 328.641 223.234,329.175 225.023,329.358 225.592 C 330.187 228.180,329.661 228.765,326.510 228.759 C 323.127 228.751,322.810 228.407,323.570 225.568 C 325.447 218.562,325.400 218.671,326.502 218.671 C 327.231 218.671,327.398 218.966,328.169 221.615 " stroke="none" fill="#f1b02d" fill-rule="evenodd"></path><path id="path2" d="M182.586 80.907 C 182.741 81.183,184.161 82.811,185.741 84.523 C 193.603 93.044,194.701 94.851,192.383 95.457 C 192.039 95.547,191.758 95.767,191.758 95.945 C 191.758 96.124,191.228 97.068,190.580 98.043 C 189.933 99.019,189.403 100.046,189.403 100.326 C 189.403 100.606,189.100 101.219,188.730 101.690 C 188.360 102.160,188.057 102.687,188.057 102.860 C 188.057 103.034,187.754 103.450,187.384 103.785 C 187.014 104.120,186.712 104.592,186.712 104.834 C 186.712 105.077,186.404 105.440,186.028 105.641 C 185.652 105.842,185.367 106.188,185.395 106.409 C 185.521 107.413,185.326 107.990,184.861 107.990 C 184.584 107.990,184.357 108.194,184.357 108.442 C 184.357 108.691,184.065 109.158,183.709 109.481 C 183.354 109.803,182.670 110.848,182.191 111.803 C 179.659 116.852,179.104 116.803,168.931 110.632 C 166.794 109.335,164.839 108.743,166.536 109.906 C 168.354 111.152,168.298 111.055,178.312 130.362 C 179.463 132.582,180.896 135.307,181.495 136.417 C 182.094 137.527,183.492 140.177,184.601 142.304 C 185.710 144.432,187.789 148.412,189.221 151.149 C 191.317 155.156,191.779 156.302,191.595 157.036 C 191.321 158.130,191.462 158.009,192.394 156.350 C 194.207 153.125,194.613 152.415,195.909 150.210 C 196.670 148.915,197.523 147.454,197.805 146.963 C 202.994 137.931,205.501 133.858,206.053 133.564 C 206.627 133.258,206.568 133.229,205.657 133.368 C 204.326 133.572,196.199 128.365,194.501 126.222 C 193.465 124.913,193.461 124.896,194.120 124.299 C 194.486 123.968,194.786 123.413,194.786 123.066 C 194.786 122.719,195.020 122.345,195.307 122.235 C 195.593 122.125,196.260 121.183,196.789 120.143 C 197.317 119.102,198.142 117.676,198.622 116.974 C 199.103 116.272,199.495 115.493,199.495 115.244 C 199.495 114.994,199.722 114.703,200.000 114.597 C 200.278 114.490,200.505 114.179,200.505 113.904 C 200.505 113.630,200.694 113.285,200.925 113.137 C 201.156 112.989,201.623 112.338,201.962 111.690 C 203.593 108.574,204.243 107.489,204.894 106.796 L 205.601 106.043 204.921 104.746 C 204.053 103.089,201.724 100.490,191.171 89.403 C 182.961 80.776,181.958 79.784,182.586 80.907 M236.165 109.394 C 236.165 109.508,237.071 111.043,238.178 112.805 C 240.627 116.701,243.566 122.183,243.566 122.853 C 243.566 123.320,242.118 124.811,241.664 124.811 C 241.545 124.811,240.802 125.341,240.012 125.988 C 239.221 126.636,238.437 127.166,238.269 127.166 C 238.102 127.166,237.597 127.565,237.149 128.052 C 236.700 128.540,235.690 129.228,234.903 129.582 C 234.117 129.936,233.474 130.428,233.474 130.677 C 233.474 132.231,240.403 139.701,263.531 163.077 C 271.790 171.425,275.203 175.089,275.061 175.458 C 274.946 175.758,275.002 175.894,275.193 175.776 C 275.376 175.663,275.526 175.706,275.526 175.872 C 275.526 176.039,275.904 176.347,276.367 176.558 C 278.158 177.374,276.870 175.929,265.845 164.755 C 243.925 142.537,243.855 142.446,247.433 140.659 C 248.226 140.263,249.079 139.694,249.327 139.394 C 249.576 139.094,250.350 138.489,251.046 138.049 C 251.743 137.610,252.313 137.048,252.313 136.801 C 252.313 135.959,248.757 129.445,244.574 122.624 C 237.582 111.222,236.165 108.993,236.165 109.394 M153.238 131.203 C 152.951 131.758,152.792 132.212,152.884 132.212 C 152.977 132.212,153.287 131.758,153.574 131.203 C 153.861 130.648,154.021 130.193,153.928 130.193 C 153.836 130.193,153.525 130.648,153.238 131.203 M151.264 134.651 C 143.640 147.867,138.940 156.838,138.940 158.174 C 138.940 158.346,139.505 158.723,140.196 159.012 C 140.887 159.300,141.816 159.822,142.260 160.172 C 142.704 160.521,143.332 160.807,143.654 160.807 C 143.977 160.807,144.430 161.036,144.662 161.316 C 144.894 161.595,145.821 162.162,146.722 162.575 C 147.623 162.988,148.360 163.441,148.360 163.581 C 148.360 163.721,148.721 163.835,149.163 163.835 C 149.605 163.835,150.722 164.355,151.645 164.990 C 152.569 165.625,154.618 166.757,156.200 167.504 C 157.781 168.252,159.171 169.019,159.288 169.209 C 159.405 169.399,159.757 169.555,160.070 169.556 C 160.383 169.557,161.623 170.238,162.826 171.068 C 164.029 171.899,165.353 172.579,165.770 172.580 C 166.186 172.581,166.526 172.703,166.526 172.851 C 166.526 172.999,167.036 173.304,167.659 173.529 C 168.281 173.754,169.142 174.243,169.571 174.615 C 170.000 174.987,170.740 175.386,171.214 175.502 C 171.689 175.618,172.438 175.992,172.880 176.334 C 173.321 176.676,173.878 176.955,174.117 176.955 C 174.357 176.955,174.815 177.218,175.136 177.539 C 178.077 180.480,179.270 179.149,189.297 161.733 C 189.377 161.594,189.379 161.480,189.302 161.480 C 189.225 161.480,188.624 162.353,187.966 163.419 C 187.307 164.485,186.303 165.845,185.733 166.442 L 184.696 167.526 183.507 166.858 C 182.853 166.491,182.107 166.190,181.849 166.190 C 181.591 166.190,180.953 165.845,180.430 165.423 C 179.906 165.000,178.646 164.289,177.628 163.841 C 176.611 163.393,175.123 162.600,174.321 162.079 C 173.520 161.557,172.385 160.909,171.798 160.639 C 171.212 160.369,170.505 159.999,170.227 159.818 C 169.950 159.636,168.890 159.093,167.872 158.611 C 166.854 158.129,165.265 157.308,164.340 156.786 C 161.064 154.940,158.676 153.743,158.272 153.743 C 158.046 153.743,157.674 153.516,157.443 153.238 C 157.213 152.960,156.823 152.733,156.578 152.733 C 156.332 152.733,155.432 152.261,154.576 151.684 C 153.721 151.107,151.651 149.934,149.976 149.077 C 148.300 148.220,146.646 147.369,146.299 147.187 C 145.262 146.640,146.119 144.260,149.449 138.436 C 150.190 137.140,151.163 135.437,151.611 134.651 C 152.059 133.865,152.350 133.221,152.257 133.221 C 152.165 133.221,151.718 133.865,151.264 134.651 M206.925 133.667 C 207.002 133.726,207.595 134.117,208.242 134.535 L 209.420 135.295 208.410 134.428 C 207.855 133.951,207.262 133.560,207.093 133.559 C 206.923 133.558,206.847 133.607,206.925 133.667 M209.588 135.391 C 209.588 135.483,210.042 135.794,210.597 136.081 C 211.152 136.368,211.606 136.527,211.606 136.434 C 211.606 136.342,211.152 136.031,210.597 135.744 C 210.042 135.457,209.588 135.298,209.588 135.391 M190.708 158.873 C 190.488 159.289,190.088 160.008,189.820 160.471 C 189.352 161.278,189.355 161.285,189.898 160.639 C 190.568 159.842,191.509 158.116,191.274 158.116 C 191.183 158.116,190.928 158.457,190.708 158.873 M179.567 223.283 C 179.985 223.363,180.591 223.360,180.912 223.276 C 181.234 223.192,180.892 223.126,180.151 223.129 C 179.411 223.133,179.148 223.202,179.567 223.283 " stroke="none" fill="#de6926" fill-rule="evenodd"></path><path id="path3" d="M198.370 49.396 C 198.064 49.734,197.813 50.231,197.813 50.499 C 197.813 50.767,197.511 51.205,197.140 51.472 C 196.770 51.739,196.468 52.138,196.468 52.360 C 196.468 52.904,195.354 54.831,195.038 54.834 C 194.899 54.835,194.782 55.025,194.778 55.257 C 194.774 55.488,194.475 56.056,194.113 56.518 C 193.751 56.981,193.451 57.624,193.447 57.948 C 193.443 58.272,193.288 58.537,193.103 58.537 C 192.918 58.537,192.767 58.839,192.767 59.209 C 192.767 59.579,192.616 59.882,192.431 59.882 C 192.246 59.882,192.094 60.073,192.094 60.306 C 192.094 60.539,191.716 61.138,191.253 61.637 C 190.791 62.136,190.412 62.778,190.412 63.064 C 190.412 63.349,190.289 63.583,190.138 63.583 C 189.988 63.583,189.657 64.113,189.403 64.760 C 189.149 65.408,188.818 65.938,188.667 65.938 C 188.517 65.938,188.394 66.228,188.394 66.583 C 188.394 66.937,188.268 67.278,188.115 67.340 C 187.773 67.477,185.366 71.568,185.366 72.011 C 185.366 72.186,185.214 72.330,185.029 72.330 C 184.844 72.330,184.693 72.604,184.693 72.939 C 184.693 73.274,184.395 73.868,184.032 74.258 C 183.668 74.649,182.858 75.926,182.231 77.097 C 180.105 81.071,179.209 82.590,178.923 82.703 C 178.766 82.764,178.634 82.991,178.630 83.207 C 178.626 83.423,178.327 83.978,177.965 84.441 C 177.603 84.903,177.303 85.547,177.299 85.870 C 177.295 86.194,177.140 86.459,176.955 86.459 C 176.770 86.459,176.619 86.693,176.619 86.979 C 176.619 87.264,176.241 87.906,175.778 88.405 C 175.315 88.904,174.937 89.503,174.937 89.736 C 174.937 89.969,174.786 90.160,174.601 90.160 C 174.415 90.160,174.264 90.463,174.264 90.833 C 174.264 91.203,174.141 91.505,173.990 91.505 C 173.840 91.505,173.509 92.035,173.255 92.683 C 173.001 93.331,172.670 93.860,172.519 93.860 C 172.369 93.860,172.246 94.151,172.246 94.505 C 172.246 94.860,172.132 95.200,171.993 95.262 C 171.630 95.423,169.891 98.155,169.891 98.563 C 169.891 98.752,169.739 98.907,169.554 98.907 C 169.369 98.907,169.218 99.209,169.218 99.579 C 169.218 99.950,169.066 100.252,168.881 100.252 C 168.696 100.252,168.545 100.527,168.545 100.862 C 168.545 101.197,168.263 101.774,167.919 102.143 C 167.081 103.042,165.517 105.872,165.517 106.488 C 165.517 106.759,165.366 106.981,165.181 106.981 C 164.996 106.981,164.844 107.283,164.844 107.653 C 164.844 108.024,164.693 108.326,164.508 108.326 C 164.323 108.326,164.172 108.581,164.172 108.893 C 164.172 109.205,163.888 109.773,163.541 110.155 C 162.750 111.027,161.144 113.929,161.144 114.488 C 161.144 114.718,160.841 115.124,160.471 115.391 C 160.101 115.658,159.798 116.145,159.798 116.475 C 159.798 116.804,159.650 117.073,159.468 117.073 C 159.287 117.073,159.043 117.452,158.927 117.914 C 158.811 118.377,158.581 118.755,158.416 118.755 C 158.251 118.755,158.116 118.989,158.116 119.274 C 158.116 119.559,157.813 120.118,157.443 120.515 C 157.073 120.912,156.770 121.511,156.770 121.846 C 156.770 122.182,156.619 122.456,156.434 122.456 C 156.249 122.456,156.098 122.690,156.098 122.975 C 156.098 123.261,155.719 123.903,155.257 124.401 C 154.794 124.900,154.415 125.499,154.415 125.732 C 154.415 125.966,154.264 126.156,154.079 126.156 C 153.894 126.156,153.743 126.459,153.743 126.829 C 153.743 127.199,153.591 127.502,153.406 127.502 C 153.221 127.502,153.070 127.805,153.070 128.175 C 153.070 128.545,152.918 128.848,152.733 128.848 C 152.548 128.848,152.397 129.193,152.397 129.615 C 152.397 130.036,152.087 130.604,151.708 130.876 C 151.007 131.380,150.042 133.017,150.042 133.703 C 150.042 133.912,149.739 134.300,149.369 134.567 C 148.999 134.834,148.696 135.321,148.696 135.650 C 148.696 135.980,148.545 136.249,148.360 136.249 C 148.175 136.249,148.024 136.486,148.024 136.776 C 148.024 137.066,147.660 137.785,147.216 138.374 C 146.148 139.791,144.996 141.884,144.996 142.409 C 144.996 142.640,144.693 143.047,144.323 143.314 C 143.953 143.580,143.650 144.068,143.650 144.397 C 143.650 144.726,143.502 144.996,143.320 144.996 C 143.139 144.996,142.895 145.374,142.779 145.837 C 142.663 146.299,142.433 146.678,142.268 146.678 C 142.103 146.678,141.968 146.911,141.968 147.197 C 141.968 147.482,141.665 148.040,141.295 148.437 C 140.925 148.835,140.622 149.434,140.622 149.769 C 140.622 150.104,140.471 150.378,140.286 150.378 C 140.101 150.378,139.950 150.681,139.950 151.051 C 139.950 151.421,139.833 151.724,139.690 151.724 C 139.547 151.724,139.144 152.254,138.796 152.902 C 138.447 153.549,138.034 154.079,137.878 154.079 C 137.722 154.079,137.595 154.382,137.595 154.752 C 137.595 155.122,137.443 155.425,137.258 155.425 C 137.073 155.425,136.922 155.728,136.922 156.098 C 136.922 156.468,136.770 156.770,136.585 156.770 C 136.400 156.770,136.249 157.045,136.249 157.380 C 136.249 157.715,135.984 158.283,135.660 158.641 C 134.803 159.591,133.221 162.082,133.221 162.482 C 133.221 162.671,133.070 162.826,132.885 162.826 C 132.700 162.826,132.548 163.129,132.548 163.499 C 132.548 163.869,132.397 164.172,132.212 164.172 C 132.027 164.172,131.876 164.337,131.876 164.540 C 131.876 164.743,131.591 165.311,131.242 165.802 C 130.894 166.293,130.084 167.679,129.442 168.881 C 127.309 172.877,126.394 174.431,126.105 174.544 C 125.948 174.606,125.817 174.833,125.813 175.049 C 125.808 175.265,125.509 175.820,125.147 176.283 C 124.785 176.745,124.486 177.389,124.482 177.712 C 124.478 178.036,124.323 178.301,124.138 178.301 C 123.622 178.301,123.739 180.641,124.282 181.185 C 124.941 181.844,179.173 181.892,179.983 181.234 C 180.622 180.716,182.338 178.093,182.338 177.635 C 182.338 177.446,182.489 177.292,182.675 177.292 C 182.860 177.292,183.011 176.989,183.011 176.619 C 183.011 176.249,183.162 175.946,183.347 175.946 C 183.532 175.946,183.684 175.568,183.684 175.105 C 183.684 174.643,183.833 174.264,184.016 174.264 C 184.442 174.264,186.039 171.747,186.039 171.075 C 186.039 170.794,186.190 170.563,186.375 170.563 C 186.560 170.563,186.712 170.294,186.712 169.965 C 186.712 169.636,187.014 169.148,187.384 168.881 C 187.754 168.615,188.057 168.146,188.057 167.839 C 188.057 167.533,188.284 167.093,188.562 166.863 C 188.839 166.633,189.066 166.236,189.066 165.981 C 189.066 165.726,189.190 165.517,189.340 165.517 C 189.491 165.517,189.822 164.987,190.076 164.340 C 190.330 163.692,190.661 163.162,190.811 163.162 C 190.962 163.162,191.085 162.860,191.085 162.489 C 191.085 162.119,191.236 161.817,191.421 161.817 C 191.606 161.817,191.758 161.514,191.758 161.144 C 191.758 160.774,191.902 160.471,192.078 160.471 C 192.255 160.471,192.650 159.941,192.958 159.294 C 193.265 158.646,193.651 158.116,193.815 158.116 C 193.979 158.116,194.113 157.883,194.113 157.597 C 194.113 157.312,194.415 156.754,194.786 156.356 C 195.156 155.959,195.458 155.360,195.458 155.025 C 195.458 154.690,195.592 154.415,195.756 154.415 C 195.919 154.415,196.144 154.151,196.255 153.827 C 196.366 153.503,196.844 152.632,197.318 151.892 C 197.791 151.152,198.265 150.282,198.372 149.958 C 198.478 149.634,198.698 149.369,198.862 149.369 C 199.025 149.369,199.159 149.066,199.159 148.696 C 199.159 148.326,199.310 148.024,199.495 148.024 C 199.680 148.024,199.832 147.728,199.832 147.367 C 199.832 147.007,200.034 146.590,200.282 146.442 C 200.834 146.113,202.860 142.448,202.860 141.779 C 202.860 141.513,202.986 141.295,203.140 141.295 C 203.294 141.295,203.856 140.463,204.388 139.445 C 204.921 138.427,205.476 137.595,205.622 137.595 C 205.768 137.595,205.887 137.292,205.887 136.922 C 205.887 136.386,206.112 136.249,206.990 136.249 C 207.708 136.249,208.263 136.484,208.579 136.922 C 208.845 137.292,209.264 137.595,209.508 137.595 C 209.752 137.595,210.239 137.860,210.589 138.183 C 210.938 138.507,211.803 139.075,212.509 139.445 C 213.215 139.815,214.087 140.383,214.445 140.706 C 214.804 141.030,215.372 141.295,215.707 141.295 C 216.042 141.295,216.316 141.447,216.316 141.632 C 216.316 141.817,216.520 141.968,216.769 141.968 C 217.018 141.968,217.492 142.267,217.822 142.632 C 218.153 142.998,218.732 143.395,219.110 143.514 C 219.488 143.634,220.102 144.017,220.475 144.364 C 220.848 144.712,221.351 144.996,221.594 144.996 C 221.837 144.996,222.035 145.147,222.035 145.332 C 222.035 145.517,222.300 145.669,222.624 145.669 C 223.135 145.669,223.709 146.052,225.638 147.681 C 225.861 147.869,226.277 148.024,226.563 148.024 C 226.848 148.024,227.082 148.175,227.082 148.360 C 227.082 148.545,227.309 148.696,227.586 148.696 C 227.864 148.696,228.091 148.848,228.091 149.033 C 228.091 149.218,228.394 149.369,228.764 149.369 C 229.134 149.369,229.437 149.497,229.437 149.653 C 229.437 149.809,229.966 150.221,230.614 150.570 C 231.262 150.919,231.791 151.321,231.791 151.464 C 231.791 151.607,232.061 151.724,232.390 151.724 C 232.719 151.724,233.207 152.027,233.474 152.397 C 233.740 152.767,234.228 153.070,234.557 153.070 C 234.886 153.070,235.156 153.221,235.156 153.406 C 235.156 153.591,235.383 153.743,235.660 153.743 C 235.938 153.743,236.165 153.876,236.165 154.040 C 236.165 154.203,236.430 154.428,236.754 154.539 C 237.077 154.650,237.948 155.129,238.688 155.602 C 239.428 156.075,240.299 156.550,240.622 156.656 C 240.946 156.762,241.211 156.983,241.211 157.146 C 241.211 157.309,241.366 157.443,241.555 157.443 C 241.963 157.443,244.694 159.183,244.856 159.546 C 244.917 159.685,245.189 159.798,245.458 159.798 C 245.728 159.798,246.274 160.101,246.671 160.471 C 247.068 160.841,247.655 161.144,247.975 161.144 C 248.295 161.144,248.607 161.257,248.668 161.396 C 248.820 161.738,250.919 163.234,252.061 163.815 C 252.569 164.074,252.986 164.411,252.986 164.565 C 252.986 164.719,253.288 164.844,253.659 164.844 C 254.029 164.844,254.331 164.968,254.331 165.118 C 254.331 165.269,254.855 165.597,255.495 165.848 C 256.135 166.099,256.736 166.506,256.830 166.752 C 256.924 166.998,257.233 167.199,257.517 167.199 C 257.800 167.199,258.032 167.351,258.032 167.536 C 258.032 167.721,258.259 167.872,258.537 167.872 C 258.814 167.872,259.041 168.024,259.041 168.209 C 259.041 168.394,259.344 168.545,259.714 168.545 C 260.084 168.545,260.387 168.696,260.387 168.881 C 260.387 169.066,260.690 169.218,261.060 169.218 C 261.430 169.218,261.733 169.337,261.733 169.482 C 261.733 169.627,262.225 170.032,262.826 170.382 C 263.427 170.731,263.995 171.105,264.087 171.211 C 264.180 171.317,264.617 171.608,265.059 171.857 C 265.500 172.105,266.375 172.597,267.003 172.950 C 267.631 173.303,268.285 173.591,268.456 173.591 C 268.627 173.591,269.138 173.932,269.591 174.348 C 270.936 175.583,271.440 175.946,271.811 175.946 C 272.004 175.946,272.161 176.098,272.161 176.283 C 272.161 176.468,272.431 176.619,272.760 176.619 C 273.089 176.619,273.577 176.922,273.844 177.292 C 274.110 177.662,274.598 177.965,274.927 177.965 C 275.256 177.965,275.526 178.113,275.526 178.295 C 275.526 178.476,275.904 178.720,276.367 178.836 C 276.829 178.952,277.208 179.146,277.208 179.267 C 277.208 179.389,277.813 179.862,278.553 180.320 C 279.294 180.777,279.899 181.267,279.899 181.408 C 279.899 181.550,280.580 181.665,281.413 181.665 L 282.927 181.665 282.927 180.438 C 282.927 179.477,282.671 178.962,281.749 178.067 C 281.102 177.438,280.572 176.737,280.572 176.509 C 280.572 176.281,280.269 175.876,279.899 175.610 C 279.529 175.343,279.226 174.855,279.226 174.526 C 279.226 174.197,279.092 173.928,278.928 173.928 C 278.764 173.928,278.382 173.436,278.078 172.834 C 277.225 171.146,276.298 169.779,275.273 168.700 C 275.042 168.456,274.853 168.019,274.853 167.728 C 274.853 167.437,274.701 167.199,274.516 167.199 C 274.331 167.199,274.180 166.952,274.180 166.649 C 274.180 166.347,273.802 165.748,273.339 165.320 C 272.876 164.891,272.498 164.306,272.498 164.019 C 272.498 163.733,272.347 163.499,272.161 163.499 C 271.976 163.499,271.825 163.196,271.825 162.826 C 271.825 162.456,271.674 162.153,271.489 162.153 C 271.304 162.153,271.152 161.926,271.152 161.648 C 271.152 161.371,271.001 161.144,270.816 161.144 C 270.631 161.144,270.479 160.841,270.479 160.471 C 270.479 160.101,270.362 159.798,270.219 159.798 C 270.077 159.798,269.674 159.268,269.325 158.621 C 268.977 157.973,268.564 157.443,268.408 157.443 C 268.252 157.443,268.124 157.210,268.124 156.925 C 268.124 156.639,267.822 156.081,267.452 155.684 C 267.082 155.286,266.779 154.763,266.779 154.520 C 266.779 154.278,266.627 154.079,266.442 154.079 C 266.257 154.079,266.106 153.904,266.106 153.690 C 266.106 153.476,265.728 152.805,265.265 152.199 C 264.802 151.592,264.424 150.935,264.424 150.737 C 264.424 150.540,264.301 150.378,264.150 150.378 C 264.000 150.378,263.669 149.849,263.415 149.201 C 263.161 148.553,262.830 148.024,262.679 148.024 C 262.529 148.024,262.405 147.790,262.405 147.504 C 262.405 147.218,262.027 146.605,261.564 146.143 C 261.102 145.680,260.723 145.081,260.723 144.812 C 260.723 144.543,260.572 144.323,260.387 144.323 C 260.202 144.323,260.050 144.124,260.050 143.882 C 260.050 143.639,259.748 143.116,259.378 142.718 C 259.008 142.321,258.705 141.824,258.705 141.614 C 258.705 141.208,257.507 139.337,256.885 138.772 C 256.681 138.587,256.139 137.679,255.681 136.754 C 255.223 135.828,254.580 134.827,254.253 134.527 C 253.926 134.228,253.659 133.835,253.659 133.655 C 253.659 133.474,253.280 132.886,252.818 132.348 C 252.356 131.811,251.977 131.182,251.977 130.950 C 251.977 130.719,251.853 130.530,251.703 130.530 C 251.552 130.530,251.221 130.000,250.967 129.352 C 250.713 128.705,250.419 128.175,250.314 128.175 C 250.208 128.175,249.921 127.721,249.675 127.166 C 249.430 126.611,249.014 126.156,248.752 126.156 C 248.468 126.156,248.276 125.817,248.276 125.315 C 248.276 124.853,248.124 124.474,247.939 124.474 C 247.754 124.474,247.603 124.276,247.603 124.033 C 247.603 123.791,247.300 123.267,246.930 122.870 C 246.560 122.473,246.257 121.974,246.257 121.762 C 246.257 121.549,245.877 120.899,245.411 120.318 C 244.946 119.736,244.445 119.108,244.299 118.923 C 244.153 118.738,243.815 118.095,243.549 117.494 C 243.283 116.892,242.951 116.400,242.811 116.400 C 242.671 116.400,242.557 116.202,242.557 115.959 C 242.557 115.716,242.273 115.213,241.925 114.840 C 241.578 114.467,241.189 113.833,241.061 113.431 C 240.934 113.029,240.688 112.700,240.516 112.700 C 240.343 112.700,240.202 112.501,240.202 112.259 C 240.202 112.016,239.899 111.492,239.529 111.095 C 239.159 110.698,238.856 110.168,238.856 109.918 C 238.856 109.667,238.553 109.137,238.183 108.740 C 237.813 108.343,237.511 107.871,237.511 107.692 C 237.511 107.513,237.132 107.068,236.669 106.704 C 236.207 106.340,235.828 105.724,235.828 105.334 C 235.828 104.945,235.677 104.626,235.492 104.626 C 235.307 104.626,235.156 104.356,235.156 104.027 C 235.156 103.698,234.853 103.210,234.483 102.944 C 234.113 102.677,233.810 102.241,233.810 101.976 C 233.810 101.483,232.204 99.166,231.721 98.963 C 231.575 98.901,231.455 98.560,231.455 98.206 C 231.455 97.851,231.304 97.561,231.119 97.561 C 230.934 97.561,230.782 97.334,230.782 97.056 C 230.782 96.779,230.631 96.552,230.446 96.552 C 230.261 96.552,230.109 96.249,230.109 95.879 C 230.109 95.509,229.992 95.206,229.849 95.206 C 229.706 95.206,229.304 94.676,228.955 94.029 C 228.607 93.381,228.194 92.851,228.038 92.851 C 227.882 92.851,227.754 92.582,227.754 92.253 C 227.754 91.923,227.452 91.436,227.082 91.169 C 226.712 90.902,226.409 90.443,226.409 90.149 C 226.409 89.855,226.136 89.320,225.803 88.962 C 225.470 88.603,225.096 88.045,224.973 87.721 C 224.849 87.397,224.592 87.132,224.401 87.132 C 224.210 87.132,224.054 86.829,224.054 86.459 C 224.054 86.089,223.902 85.786,223.717 85.786 C 223.532 85.786,223.381 85.559,223.381 85.282 C 223.381 85.004,223.230 84.777,223.045 84.777 C 222.860 84.777,222.708 84.474,222.708 84.104 C 222.708 83.734,222.574 83.431,222.410 83.431 C 222.246 83.431,221.863 82.939,221.560 82.338 C 220.735 80.705,220.249 79.968,219.596 79.360 C 219.272 79.058,219.008 78.564,219.008 78.262 C 219.008 77.960,218.856 77.712,218.671 77.712 C 218.486 77.712,218.335 77.485,218.335 77.208 C 218.335 76.930,218.183 76.703,217.998 76.703 C 217.813 76.703,217.662 76.470,217.662 76.184 C 217.662 75.699,217.447 75.359,216.400 74.192 C 216.169 73.934,215.980 73.561,215.980 73.363 C 215.980 73.165,215.828 73.003,215.643 73.003 C 215.458 73.003,215.307 72.700,215.307 72.330 C 215.307 71.960,215.181 71.657,215.027 71.657 C 214.872 71.657,214.305 70.804,213.765 69.763 C 213.225 68.721,212.519 67.700,212.195 67.495 C 211.871 67.290,211.606 66.855,211.606 66.530 C 211.606 66.204,211.483 65.938,211.333 65.938 C 211.182 65.938,210.851 65.408,210.597 64.760 C 210.343 64.113,210.012 63.583,209.862 63.583 C 209.711 63.583,209.588 63.378,209.588 63.127 C 209.588 62.877,209.209 62.263,208.747 61.764 C 208.284 61.265,207.906 60.707,207.906 60.524 C 207.906 60.340,207.603 59.866,207.233 59.468 C 206.863 59.071,206.560 58.548,206.560 58.305 C 206.560 58.062,206.409 57.864,206.224 57.864 C 206.039 57.864,205.887 57.599,205.887 57.275 C 205.887 56.764,205.503 56.190,203.875 54.261 C 203.687 54.038,203.532 53.622,203.532 53.336 C 203.532 53.051,203.381 52.817,203.196 52.817 C 203.011 52.817,202.860 52.590,202.860 52.313 C 202.860 52.035,202.708 51.808,202.523 51.808 C 202.338 51.808,202.187 51.580,202.187 51.301 C 202.187 49.585,199.440 48.214,198.370 49.396 M201.529 53.406 C 204.160 57.558,204.443 58.011,206.521 61.396 C 207.657 63.246,208.737 64.987,208.921 65.265 C 209.105 65.542,210.183 67.283,211.318 69.134 C 212.452 70.984,213.721 73.028,214.137 73.675 C 214.554 74.323,217.056 78.335,219.699 82.590 C 222.341 86.846,225.740 92.296,227.252 94.701 C 228.764 97.107,230.882 100.513,231.958 102.271 C 233.034 104.029,235.009 107.208,236.346 109.336 C 237.683 111.463,240.175 115.475,241.884 118.251 C 244.759 122.920,249.028 129.757,250.812 132.548 C 255.457 139.815,260.372 147.618,265.752 156.266 C 271.371 165.298,274.765 170.710,276.826 173.928 C 277.122 174.390,277.529 175.071,277.731 175.442 C 277.933 175.812,278.308 176.448,278.565 176.856 C 279.279 177.989,278.707 178.158,277.298 177.230 C 276.601 176.771,274.668 175.587,273.003 174.600 C 271.337 173.613,266.644 170.735,262.574 168.205 C 258.503 165.676,251.918 161.594,247.939 159.135 C 238.036 153.014,232.335 149.491,229.941 148.009 C 228.831 147.323,225.652 145.359,222.876 143.645 C 215.901 139.339,211.141 136.381,208.680 134.822 C 205.730 132.953,205.927 132.815,202.326 139.267 C 201.756 140.290,199.598 144.060,197.533 147.644 C 195.467 151.229,193.776 154.233,193.776 154.321 C 193.776 154.408,193.473 154.905,193.103 155.425 C 192.733 155.945,191.921 157.255,191.299 158.337 C 190.678 159.418,188.546 163.096,186.563 166.510 C 182.965 172.703,182.116 174.188,180.444 177.208 C 178.732 180.301,181.916 179.998,152.091 179.901 C 126.374 179.817,125.655 179.798,125.761 179.179 C 125.822 178.829,126.792 176.937,127.917 174.974 C 131.547 168.640,133.411 165.426,135.643 161.648 C 140.797 152.928,143.808 147.757,147.691 140.959 C 149.964 136.981,152.349 132.817,152.992 131.707 C 153.636 130.597,154.506 129.083,154.927 128.343 C 155.348 127.603,156.485 125.635,157.455 123.970 C 158.425 122.304,160.428 118.823,161.906 116.232 C 163.384 113.642,164.877 111.120,165.223 110.629 C 165.570 110.138,165.854 109.555,165.854 109.334 C 165.854 109.000,168.306 104.509,170.904 100.084 C 171.230 99.529,172.346 97.599,173.385 95.795 C 174.424 93.991,176.123 91.039,177.162 89.235 C 178.200 87.431,179.328 85.472,179.667 84.883 C 180.006 84.294,180.678 83.186,181.161 82.422 C 181.643 81.658,182.314 80.551,182.651 79.961 C 182.989 79.372,183.791 77.981,184.433 76.871 C 185.076 75.761,186.779 72.809,188.218 70.311 C 190.510 66.332,193.255 61.575,195.109 58.368 C 195.430 57.813,196.489 55.959,197.464 54.247 C 199.580 50.529,199.690 50.506,201.529 53.406 M51.976 207.981 C 48.745 208.350,48.308 208.548,48.169 209.706 C 48.111 210.196,47.922 210.597,47.749 210.597 C 47.576 210.597,47.435 211.051,47.435 211.606 C 47.435 212.161,47.283 212.616,47.098 212.616 C 46.913 212.616,46.762 213.081,46.762 213.649 C 46.762 214.217,46.535 214.909,46.257 215.187 C 45.980 215.464,45.753 215.974,45.753 216.320 C 45.753 216.666,45.601 217.043,45.416 217.157 C 45.231 217.272,45.080 217.801,45.080 218.335 C 45.080 218.868,44.929 219.398,44.743 219.512 C 44.558 219.627,44.407 220.165,44.407 220.710 C 44.407 221.254,44.256 221.699,44.071 221.699 C 43.886 221.699,43.734 222.153,43.734 222.708 C 43.734 223.263,43.583 223.717,43.398 223.717 C 43.213 223.717,43.061 224.247,43.061 224.895 C 43.061 225.542,42.939 226.072,42.789 226.072 C 42.639 226.072,42.240 227.019,41.902 228.175 C 41.564 229.331,41.157 230.421,40.997 230.597 C 40.837 230.773,40.706 231.341,40.706 231.859 C 40.706 232.377,40.555 232.801,40.370 232.801 C 40.185 232.801,40.034 233.322,40.034 233.958 C 40.034 234.595,39.882 235.209,39.697 235.324 C 39.512 235.438,39.361 235.892,39.361 236.333 C 39.361 236.774,39.209 237.228,39.024 237.342 C 38.546 237.638,38.627 239.253,39.156 239.950 C 39.717 240.688,47.242 240.815,48.108 240.100 C 48.913 239.435,49.453 238.272,49.453 237.201 C 49.453 235.942,49.962 235.776,53.555 235.863 C 56.636 235.938,57.527 236.368,57.527 237.779 C 57.527 240.409,65.802 241.990,67.898 239.760 C 68.654 238.954,68.883 237.847,68.293 237.847 C 68.108 237.847,67.956 237.326,67.956 236.689 C 67.956 236.053,67.822 235.449,67.658 235.347 C 67.494 235.246,67.260 234.631,67.138 233.982 C 67.016 233.332,66.772 232.801,66.595 232.801 C 66.419 232.801,66.274 232.271,66.274 231.623 C 66.274 230.976,66.123 230.446,65.938 230.446 C 65.753 230.446,65.601 230.001,65.601 229.456 C 65.601 228.912,65.450 228.373,65.265 228.259 C 65.080 228.145,64.929 227.606,64.929 227.062 C 64.929 226.518,64.777 226.072,64.592 226.072 C 64.407 226.072,64.256 225.692,64.256 225.227 C 64.256 224.382,64.189 224.195,63.135 222.092 C 62.826 221.476,62.574 220.605,62.574 220.158 C 62.574 219.710,62.422 219.344,62.237 219.344 C 62.052 219.344,61.901 218.899,61.901 218.355 C 61.901 217.810,61.749 217.272,61.564 217.157 C 61.379 217.043,61.228 216.504,61.228 215.960 C 61.228 215.416,61.077 214.971,60.892 214.971 C 60.706 214.971,60.555 214.525,60.555 213.981 C 60.555 213.437,60.404 212.898,60.219 212.784 C 60.034 212.669,59.882 212.215,59.882 211.775 C 59.882 211.334,59.731 210.880,59.546 210.765 C 59.361 210.651,59.209 210.271,59.209 209.922 C 59.209 209.572,58.703 208.900,58.084 208.428 C 56.863 207.496,56.471 207.467,51.976 207.981 M75.357 207.882 C 75.080 208.074,74.501 208.234,74.072 208.237 C 72.307 208.249,72.330 208.042,72.330 224.175 L 72.330 239.147 73.307 239.843 C 74.458 240.663,80.128 240.855,81.110 240.107 C 81.985 239.440,82.907 232.801,82.124 232.801 C 81.625 232.801,81.645 231.694,82.153 231.186 C 82.965 230.374,84.777 231.414,84.777 232.693 C 84.777 233.052,85.061 233.652,85.409 234.025 C 85.756 234.398,86.145 235.032,86.273 235.434 C 86.400 235.836,86.646 236.165,86.818 236.165 C 86.991 236.165,87.132 236.468,87.132 236.838 C 87.132 237.208,87.283 237.511,87.468 237.511 C 87.653 237.511,87.805 237.726,87.805 237.989 C 87.805 240.141,95.748 241.765,97.981 240.070 C 98.998 239.298,98.012 234.819,96.826 234.819 C 96.675 234.819,96.552 234.587,96.552 234.303 C 96.552 233.742,95.729 232.345,94.788 231.307 C 94.463 230.949,94.197 230.518,94.197 230.350 C 94.197 230.182,93.884 229.606,93.502 229.070 L 92.808 228.094 94.259 226.604 C 96.326 224.481,96.552 224.165,96.552 223.395 C 96.552 223.017,96.703 222.708,96.888 222.708 C 97.091 222.708,97.225 221.313,97.225 219.196 C 97.225 217.217,97.078 215.592,96.888 215.475 C 96.703 215.361,96.552 214.996,96.552 214.663 C 96.552 214.331,96.211 213.689,95.795 213.235 C 95.378 212.782,94.823 212.003,94.560 211.504 C 94.298 211.005,93.908 210.597,93.694 210.597 C 93.480 210.597,92.949 210.219,92.515 209.756 C 92.080 209.294,91.478 208.915,91.178 208.915 C 90.877 208.915,90.458 208.742,90.246 208.530 C 90.007 208.291,88.238 208.117,85.553 208.070 C 83.184 208.028,80.034 207.890,78.553 207.763 C 76.855 207.617,75.676 207.661,75.357 207.882 M204.034 207.910 C 203.921 208.093,203.524 208.242,203.152 208.242 C 202.277 208.242,201.514 209.015,201.514 209.900 C 201.514 210.284,201.362 210.597,201.177 210.597 C 200.992 210.597,200.841 211.042,200.841 211.587 C 200.841 212.131,200.690 212.669,200.505 212.784 C 200.320 212.898,200.168 213.372,200.168 213.837 C 200.168 214.302,199.941 214.909,199.664 215.187 C 199.386 215.464,199.159 216.050,199.159 216.489 C 199.159 216.927,199.008 217.379,198.823 217.494 C 198.638 217.608,198.486 218.062,198.486 218.503 C 198.486 218.944,198.335 219.398,198.150 219.512 C 197.965 219.627,197.813 220.165,197.813 220.710 C 197.813 221.254,197.662 221.699,197.477 221.699 C 197.292 221.699,197.140 222.153,197.140 222.708 C 197.140 223.263,196.989 223.717,196.804 223.717 C 196.619 223.717,196.468 224.247,196.468 224.895 C 196.468 225.542,196.345 226.072,196.195 226.072 C 196.045 226.072,195.656 227.019,195.332 228.175 C 195.007 229.331,194.600 230.540,194.427 230.862 C 194.254 231.183,194.113 231.742,194.113 232.103 C 194.113 232.465,193.961 232.855,193.776 232.969 C 193.591 233.083,193.440 233.698,193.440 234.334 C 193.440 234.971,193.288 235.492,193.103 235.492 C 192.918 235.492,192.767 235.937,192.767 236.481 C 192.767 237.026,192.616 237.564,192.431 237.679 C 191.882 238.018,192.047 239.382,192.709 239.982 C 193.422 240.626,201.177 240.828,201.177 240.202 C 201.177 240.017,201.405 239.865,201.682 239.865 C 201.960 239.865,202.187 239.638,202.187 239.361 C 202.187 239.083,202.338 238.856,202.523 238.856 C 202.708 238.856,202.860 238.479,202.860 238.018 C 202.860 236.186,203.991 235.532,206.848 235.710 C 210.890 235.962,210.934 235.980,210.934 237.454 C 210.934 239.896,212.111 240.538,216.587 240.538 C 218.658 240.538,220.353 240.423,220.353 240.282 C 220.353 240.140,220.694 239.876,221.110 239.693 C 221.904 239.345,222.429 237.174,221.720 237.174 C 221.523 237.174,221.362 236.805,221.362 236.353 C 221.362 235.901,221.211 235.438,221.026 235.324 C 220.841 235.209,220.689 234.860,220.688 234.547 C 220.686 234.234,220.459 233.545,220.183 233.015 C 219.907 232.485,219.680 231.690,219.680 231.248 C 219.680 230.807,219.529 230.446,219.344 230.446 C 219.159 230.446,219.008 229.916,219.008 229.268 C 219.008 228.621,218.856 228.091,218.671 228.091 C 218.486 228.091,218.335 227.637,218.335 227.082 C 218.335 226.526,218.183 226.072,217.998 226.072 C 217.813 226.072,217.662 225.627,217.662 225.083 C 217.662 224.539,217.511 224.000,217.325 223.886 C 217.140 223.771,216.989 223.327,216.989 222.898 C 216.989 222.469,216.762 221.929,216.484 221.699 C 216.207 221.469,215.980 220.853,215.980 220.332 C 215.980 219.810,215.828 219.290,215.643 219.176 C 215.458 219.061,215.307 218.607,215.307 218.167 C 215.307 217.726,215.156 217.272,214.971 217.157 C 214.786 217.043,214.634 216.502,214.634 215.955 C 214.634 215.409,214.483 214.661,214.298 214.293 C 214.113 213.926,213.810 213.324,213.625 212.957 C 213.440 212.589,213.288 211.981,213.288 211.606 C 213.288 210.220,211.808 208.242,210.769 208.242 C 210.366 208.242,209.933 208.138,209.806 208.011 C 209.430 207.636,204.260 207.545,204.034 207.910 M323.821 207.873 C 323.696 208.076,323.230 208.242,322.785 208.242 C 321.914 208.242,320.269 210.260,320.269 211.328 C 320.269 211.644,320.118 211.997,319.933 212.111 C 319.748 212.225,319.596 212.831,319.596 213.457 C 319.596 214.082,319.445 214.688,319.260 214.802 C 319.075 214.917,318.923 215.371,318.923 215.812 C 318.923 216.252,318.772 216.707,318.587 216.821 C 318.402 216.935,318.251 217.398,318.251 217.850 C 318.251 218.302,318.099 218.671,317.914 218.671 C 317.729 218.671,317.578 219.116,317.578 219.661 C 317.578 220.205,317.445 220.732,317.282 220.833 C 316.941 221.044,315.896 224.091,315.896 224.874 C 315.896 225.163,315.761 225.399,315.596 225.399 C 315.431 225.399,315.211 225.892,315.107 226.493 C 314.669 229.026,314.457 229.773,314.175 229.773 C 314.011 229.773,313.877 230.227,313.877 230.782 C 313.877 231.337,313.726 231.791,313.541 231.791 C 313.356 231.791,313.200 232.208,313.194 232.717 C 313.188 233.225,312.961 233.936,312.689 234.295 C 312.417 234.654,312.195 235.364,312.195 235.873 C 312.195 236.382,312.044 236.892,311.859 237.006 C 311.387 237.297,311.438 239.646,311.926 240.135 C 312.193 240.401,313.627 240.538,316.148 240.538 C 320.533 240.538,321.633 240.163,322.268 238.452 C 323.075 236.277,322.955 236.340,326.529 236.242 L 329.857 236.152 330.278 237.066 C 330.509 237.569,330.698 238.306,330.698 238.703 C 330.698 240.445,338.272 241.535,340.202 240.070 C 340.858 239.572,341.083 235.492,340.454 235.492 C 340.269 235.492,340.118 235.122,340.118 234.671 C 340.118 234.219,339.966 233.756,339.781 233.642 C 339.596 233.527,339.445 232.913,339.445 232.276 C 339.445 231.640,339.311 231.119,339.147 231.119 C 338.983 231.119,338.768 230.702,338.670 230.193 C 338.252 228.030,337.775 226.581,337.444 226.471 C 337.249 226.406,337.090 225.996,337.090 225.560 C 337.090 225.123,336.939 224.673,336.754 224.558 C 336.569 224.444,336.417 223.905,336.417 223.361 C 336.417 222.817,336.266 222.372,336.081 222.372 C 335.896 222.372,335.744 221.927,335.744 221.382 C 335.744 220.838,335.593 220.299,335.408 220.185 C 335.223 220.071,335.071 219.541,335.071 219.008 C 335.071 218.474,334.920 217.944,334.735 217.830 C 334.550 217.716,334.399 217.326,334.399 216.965 C 334.399 216.603,334.257 216.044,334.084 215.723 C 333.219 214.119,332.717 212.771,332.717 212.059 C 332.717 211.625,332.565 211.270,332.380 211.270 C 332.195 211.270,332.044 210.805,332.044 210.237 C 332.044 208.718,331.441 208.343,328.659 208.133 C 327.283 208.028,325.682 207.844,325.103 207.724 C 324.469 207.592,323.959 207.652,323.821 207.873 M347.014 207.906 C 346.900 208.091,346.532 208.242,346.197 208.242 C 345.721 208.242,345.544 208.594,345.391 209.840 C 345.023 212.833,345.444 239.560,345.866 240.069 C 346.347 240.649,366.358 240.778,366.358 240.202 C 366.358 240.017,366.520 239.865,366.719 239.865 C 367.745 239.865,368.040 238.872,368.038 235.432 C 368.034 230.985,368.265 231.119,360.572 231.119 L 354.920 231.119 354.920 221.975 C 354.920 215.733,355.048 212.479,355.322 211.721 C 356.120 209.514,355.059 208.242,352.422 208.242 C 351.228 208.242,350.156 208.091,350.042 207.906 C 349.928 207.721,349.246 207.569,348.528 207.569 C 347.810 207.569,347.129 207.721,347.014 207.906 M170.311 208.176 C 168.686 208.269,168.545 208.344,168.545 209.105 C 168.545 209.561,168.357 210.234,168.128 210.602 C 167.795 211.134,167.795 211.406,168.128 211.938 C 168.442 212.441,168.545 215.942,168.545 226.092 C 168.545 237.330,168.625 239.657,169.026 240.058 C 169.849 240.881,175.753 240.721,176.988 239.843 L 177.965 239.147 177.965 234.964 L 177.965 230.782 180.300 230.782 C 181.584 230.782,182.728 230.631,182.843 230.446 C 182.957 230.261,183.572 230.109,184.208 230.109 C 184.845 230.109,185.366 229.958,185.366 229.773 C 185.366 229.588,185.563 229.437,185.803 229.437 C 186.422 229.437,188.051 228.645,188.055 228.343 C 188.056 228.204,188.248 228.091,188.482 228.091 C 188.716 228.091,189.208 227.687,189.575 227.194 C 189.943 226.701,190.433 226.106,190.664 225.873 C 190.896 225.639,191.085 225.210,191.085 224.919 C 191.085 224.628,191.236 224.390,191.421 224.390 C 191.606 224.390,191.758 224.077,191.758 223.693 C 191.758 223.310,191.985 222.769,192.262 222.492 C 192.630 222.124,192.767 221.226,192.767 219.176 C 192.767 217.125,192.630 216.228,192.262 215.860 C 191.985 215.582,191.758 215.117,191.758 214.826 C 191.758 214.536,191.606 214.298,191.421 214.298 C 191.236 214.298,191.085 213.979,191.085 213.590 C 191.085 212.690,187.138 208.921,186.190 208.918 C 185.811 208.916,185.357 208.781,185.181 208.617 C 184.860 208.318,173.625 207.985,170.311 208.176 M227.960 208.154 C 225.627 208.394,225.736 207.608,225.736 224.198 C 225.736 238.744,225.756 239.213,226.409 239.865 C 227.050 240.507,227.530 240.538,236.771 240.538 C 249.136 240.538,248.270 240.890,248.273 235.866 C 248.277 230.885,248.648 231.143,241.463 231.129 L 235.828 231.119 235.828 220.185 C 235.828 213.120,235.709 209.251,235.492 209.251 C 235.307 209.251,235.156 209.045,235.156 208.793 C 235.156 208.046,231.851 207.753,227.960 208.154 M270.143 208.124 C 269.030 208.319,267.778 210.934,268.797 210.934 C 268.982 210.934,269.134 211.379,269.134 211.923 C 269.134 212.467,269.285 213.006,269.470 213.120 C 269.655 213.235,269.807 213.840,269.807 214.466 C 269.807 215.092,269.958 215.697,270.143 215.812 C 270.328 215.926,270.479 216.540,270.479 217.177 C 270.479 217.814,270.631 218.335,270.816 218.335 C 271.001 218.335,271.152 218.931,271.152 219.661 C 271.152 220.390,271.304 221.080,271.489 221.194 C 271.674 221.309,271.825 221.761,271.825 222.199 C 271.825 222.638,272.052 223.224,272.330 223.501 C 272.607 223.779,272.834 224.546,272.834 225.207 C 272.834 225.868,272.986 226.409,273.171 226.409 C 273.356 226.409,273.507 227.090,273.507 227.923 C 273.507 228.755,273.659 229.437,273.844 229.437 C 274.029 229.437,274.180 230.033,274.180 230.762 C 274.180 231.492,274.331 232.182,274.516 232.296 C 274.701 232.410,274.853 232.949,274.853 233.493 C 274.853 234.038,275.004 234.483,275.189 234.483 C 275.374 234.483,275.526 234.970,275.526 235.565 C 275.526 236.765,276.451 239.465,277.087 240.118 C 278.386 241.453,287.300 240.348,287.300 238.851 C 287.300 238.506,287.452 238.129,287.637 238.015 C 287.822 237.901,287.973 237.059,287.973 236.145 C 287.973 235.231,288.124 234.483,288.310 234.483 C 288.495 234.483,288.646 234.029,288.646 233.474 C 288.646 232.918,288.790 232.464,288.967 232.464 C 289.144 232.464,289.379 231.897,289.490 231.203 C 289.601 230.509,289.835 229.678,290.010 229.357 C 290.185 229.036,290.328 228.411,290.328 227.968 C 290.328 227.130,291.068 226.252,291.452 226.636 C 291.574 226.758,291.674 227.580,291.674 228.463 C 291.674 229.347,291.812 230.155,291.981 230.259 C 292.150 230.364,292.390 231.054,292.515 231.793 C 292.640 232.532,292.880 233.137,293.049 233.137 C 293.218 233.137,293.356 233.734,293.356 234.463 C 293.356 235.192,293.507 235.882,293.692 235.997 C 293.877 236.111,294.029 236.565,294.029 237.006 C 294.029 237.447,294.180 237.901,294.365 238.015 C 294.550 238.129,294.701 238.493,294.701 238.824 C 294.701 240.199,295.711 240.538,299.808 240.538 C 304.090 240.538,305.803 239.726,305.803 237.696 C 305.803 237.246,305.955 236.784,306.140 236.669 C 306.325 236.555,306.476 236.025,306.476 235.492 C 306.476 234.959,306.627 234.429,306.812 234.315 C 306.997 234.200,307.149 233.434,307.149 232.613 C 307.149 231.791,307.300 231.119,307.485 231.119 C 307.670 231.119,307.822 230.589,307.822 229.941 C 307.822 229.294,307.973 228.764,308.158 228.764 C 308.343 228.764,308.495 228.095,308.495 227.278 C 308.495 226.461,308.608 225.742,308.747 225.680 C 309.121 225.513,310.177 222.246,310.177 221.253 C 310.177 220.780,310.328 220.299,310.513 220.185 C 310.698 220.071,310.849 219.617,310.849 219.176 C 310.849 218.735,311.001 218.281,311.186 218.167 C 311.371 218.052,311.522 217.211,311.522 216.296 C 311.522 215.382,311.674 214.634,311.859 214.634 C 312.044 214.634,312.195 214.180,312.195 213.625 C 312.195 213.070,312.347 212.616,312.532 212.616 C 312.721 212.616,312.868 211.662,312.868 210.429 L 312.868 208.242 310.093 208.166 C 305.865 208.050,303.765 208.210,303.334 208.681 C 302.501 209.594,302.103 210.641,302.103 211.918 C 302.103 212.650,301.951 213.342,301.766 213.457 C 301.581 213.571,301.430 214.261,301.430 214.990 C 301.430 215.720,301.285 216.316,301.109 216.316 C 300.932 216.316,300.694 216.884,300.580 217.578 C 300.101 220.483,299.471 220.811,298.801 218.503 C 297.749 214.881,297.290 213.625,297.018 213.625 C 296.854 213.625,296.720 212.953,296.720 212.131 C 296.720 211.309,296.569 210.543,296.384 210.429 C 296.198 210.315,296.047 209.992,296.047 209.712 C 296.047 207.810,286.942 207.310,286.127 209.167 C 285.944 209.584,285.680 209.924,285.538 209.924 C 285.397 209.924,285.282 210.530,285.282 211.270 C 285.282 212.010,285.162 212.616,285.015 212.616 C 284.706 212.616,283.600 216.031,283.600 216.983 C 283.600 217.334,283.448 217.716,283.263 217.830 C 283.078 217.944,282.927 218.474,282.927 219.008 C 282.927 220.341,282.335 220.592,281.891 219.447 C 281.689 218.928,281.310 218.074,281.048 217.551 C 280.786 217.027,280.572 216.081,280.572 215.448 C 280.572 214.815,280.421 214.298,280.235 214.298 C 280.050 214.298,279.899 213.616,279.899 212.784 C 279.899 211.951,279.748 211.270,279.563 211.270 C 279.378 211.270,279.226 210.805,279.226 210.237 C 279.226 209.668,279.028 209.006,278.787 208.764 C 278.336 208.313,271.811 207.830,270.143 208.124 M103.701 208.745 C 102.925 209.627,103.109 239.270,103.895 239.982 C 104.580 240.601,111.018 240.822,111.018 240.225 C 111.018 240.053,111.358 239.864,111.775 239.805 L 112.532 239.697 112.625 224.727 C 112.676 216.493,112.636 209.415,112.534 208.999 C 112.304 208.052,104.508 207.828,103.701 208.745 M120.521 208.745 C 120.199 209.112,120.101 212.687,120.101 224.149 L 120.101 239.075 120.880 239.807 C 122.355 241.193,129.521 240.723,129.521 239.240 C 129.521 239.029,129.686 238.856,129.888 238.856 C 130.145 238.856,130.221 236.901,130.140 232.356 C 130.015 225.280,130.039 225.219,131.742 228.372 C 132.258 229.328,132.802 230.109,132.951 230.109 C 133.100 230.109,133.221 230.384,133.221 230.719 C 133.221 231.054,133.524 231.653,133.894 232.050 C 134.264 232.448,134.567 232.935,134.567 233.134 C 134.567 233.332,134.794 233.582,135.071 233.688 C 135.349 233.795,135.576 234.168,135.576 234.519 C 135.576 234.869,135.728 235.156,135.913 235.156 C 136.098 235.156,136.249 235.383,136.249 235.660 C 136.249 235.938,136.400 236.165,136.585 236.165 C 136.770 236.165,136.922 236.468,136.922 236.838 C 136.922 237.208,137.073 237.511,137.258 237.511 C 137.443 237.511,137.595 237.749,137.595 238.041 C 137.595 239.656,139.406 240.539,142.699 240.528 C 146.168 240.516,147.014 240.168,147.014 238.755 C 147.014 238.277,147.166 237.793,147.351 237.679 C 147.563 237.547,147.687 233.701,147.687 227.250 C 147.687 220.799,147.563 216.952,147.351 216.821 C 147.166 216.707,147.014 215.495,147.014 214.130 C 147.014 212.764,147.166 211.553,147.351 211.438 C 147.536 211.324,147.687 210.936,147.687 210.577 C 147.687 210.218,147.536 209.924,147.351 209.924 C 147.166 209.924,147.014 209.546,147.014 209.083 L 147.014 208.242 142.785 208.242 C 137.295 208.242,137.634 207.827,137.519 214.686 C 137.455 218.463,137.326 219.974,137.107 219.512 C 136.932 219.142,136.440 218.462,136.014 218.002 C 135.588 217.541,135.240 216.973,135.240 216.740 C 135.240 216.507,135.088 216.316,134.903 216.316 C 134.718 216.316,134.567 216.047,134.567 215.718 C 134.567 215.388,134.264 214.901,133.894 214.634 C 133.524 214.367,133.221 213.979,133.221 213.771 C 133.221 213.187,132.257 211.390,131.694 210.923 C 131.417 210.693,130.949 209.995,130.654 209.373 L 130.117 208.242 125.529 208.255 C 122.001 208.265,120.845 208.378,120.521 208.745 M254.079 208.739 C 253.303 209.632,253.488 239.270,254.274 239.982 C 255.183 240.804,261.242 240.771,262.325 239.938 L 263.085 239.353 262.998 223.882 L 262.910 208.410 258.705 208.333 C 255.392 208.271,254.410 208.358,254.079 208.739 M57.111 210.008 C 57.297 210.240,58.067 212.321,58.821 214.634 C 59.576 216.947,61.636 223.223,63.400 228.581 C 65.163 233.939,66.480 238.449,66.326 238.603 C 66.172 238.757,64.621 238.839,62.880 238.785 L 59.715 238.688 59.021 236.729 C 58.123 234.192,58.049 234.158,53.471 234.151 C 49.045 234.146,48.775 234.264,48.104 236.501 C 47.410 238.817,47.342 238.857,44.114 238.851 C 40.068 238.844,40.173 239.169,42.218 232.969 C 43.195 230.008,45.227 223.820,46.735 219.216 C 48.243 214.613,49.628 210.563,49.813 210.217 C 50.230 209.439,56.507 209.259,57.111 210.008 M90.215 210.481 C 96.476 213.375,97.466 222.577,91.926 226.377 C 90.478 227.371,90.469 227.332,93.231 231.970 C 97.688 239.452,97.660 238.856,93.556 238.856 C 90.059 238.856,90.414 239.148,87.484 233.879 C 84.876 229.188,84.789 229.100,82.776 229.100 C 80.550 229.100,80.439 229.339,80.330 234.336 L 80.235 238.688 77.888 238.789 C 76.596 238.845,75.196 238.804,74.776 238.699 L 74.012 238.507 74.012 224.451 C 74.012 213.657,74.109 210.297,74.432 209.970 C 75.227 209.167,88.285 209.589,90.215 210.481 M110.849 224.222 L 110.849 238.688 107.990 238.688 L 105.130 238.688 105.042 224.559 C 104.939 207.845,104.595 209.536,108.069 209.658 L 110.849 209.756 110.849 224.222 M128.731 209.845 C 129.102 210.081,132.489 215.428,135.921 221.194 C 139.233 226.760,139.402 226.578,139.613 217.214 L 139.781 209.756 142.641 209.756 L 145.500 209.756 145.500 224.222 L 145.500 238.688 143.030 238.787 C 140.266 238.899,140.008 238.772,138.835 236.721 C 138.395 235.953,137.008 233.659,135.753 231.623 C 134.497 229.588,132.632 226.529,131.606 224.825 C 128.441 219.564,128.385 219.652,128.175 230.221 L 128.007 238.688 125.147 238.688 L 122.288 238.688 122.200 224.559 C 122.151 216.787,122.185 210.240,122.273 210.009 C 122.452 209.544,128.036 209.402,128.731 209.845 M186.018 210.765 C 193.154 214.701,192.088 226.068,184.347 228.579 C 183.890 228.728,181.926 228.944,179.983 229.059 L 176.451 229.268 176.283 233.710 C 176.082 239.001,176.143 238.915,172.718 238.787 L 170.059 238.688 169.965 224.895 C 169.914 217.309,169.958 210.748,170.063 210.316 L 170.255 209.529 177.221 209.643 L 184.188 209.756 186.018 210.765 M210.564 210.052 C 210.775 210.307,211.860 213.297,212.973 216.696 C 214.087 220.095,216.136 226.321,217.526 230.531 C 218.917 234.741,219.962 238.337,219.848 238.521 C 219.611 238.905,213.984 238.973,213.422 238.599 C 213.218 238.463,212.789 237.555,212.469 236.582 C 211.715 234.291,211.376 234.146,206.774 234.146 C 202.359 234.146,202.193 234.228,201.506 236.726 C 200.931 238.817,200.878 238.845,197.382 238.851 C 193.640 238.858,193.708 239.127,195.816 232.606 C 198.853 223.209,203.176 210.229,203.377 209.903 C 203.702 209.377,210.113 209.510,210.564 210.052 M233.810 220.858 C 233.902 226.964,234.101 232.149,234.250 232.380 C 234.451 232.690,236.063 232.801,240.378 232.801 C 247.108 232.801,246.930 232.715,246.930 235.947 C 246.930 239.097,247.724 238.856,237.326 238.856 C 231.919 238.856,228.050 238.725,227.934 238.538 C 227.602 238.002,227.497 210.810,227.824 210.163 C 228.086 209.646,228.515 209.575,230.885 209.659 L 233.642 209.756 233.810 220.858 M261.228 224.222 L 261.228 238.688 258.368 238.688 L 255.509 238.688 255.421 224.559 C 255.317 207.845,254.974 209.536,258.447 209.658 L 261.228 209.756 261.228 224.222 M277.747 211.270 C 277.995 212.103,278.904 215.736,279.768 219.344 C 281.987 228.614,282.144 228.672,284.272 221.026 C 287.672 208.813,287.214 209.588,291.030 209.588 C 294.670 209.588,294.019 208.410,297.729 221.699 C 299.006 226.275,299.706 227.502,300.257 226.135 C 300.556 225.395,303.630 213.150,303.918 211.556 C 304.244 209.744,304.671 209.548,308.041 209.658 L 311.018 209.756 310.991 210.765 C 310.976 211.320,310.623 212.986,310.206 214.466 C 309.472 217.073,307.501 224.357,305.472 231.960 C 304.929 233.995,304.283 236.341,304.036 237.174 L 303.588 238.688 300.172 238.784 C 296.128 238.897,296.458 239.214,295.048 233.867 C 290.924 218.231,290.955 218.281,289.333 224.390 C 288.915 225.963,288.379 227.931,288.141 228.764 C 287.904 229.596,287.374 231.564,286.964 233.137 C 286.555 234.710,286.034 236.602,285.807 237.342 L 285.395 238.688 282.025 238.783 C 277.937 238.899,278.278 239.242,276.742 233.474 C 276.077 230.976,274.998 226.964,274.344 224.558 C 272.917 219.307,271.188 212.831,270.841 211.438 C 270.397 209.655,270.580 209.555,274.088 209.660 L 277.297 209.756 277.747 211.270 M329.954 210.008 C 330.146 210.240,331.997 215.576,334.068 221.867 C 336.139 228.158,338.202 234.426,338.654 235.796 C 339.667 238.870,339.632 238.906,335.725 238.785 L 332.571 238.688 332.055 236.973 C 331.206 234.153,331.193 234.146,326.476 234.146 C 321.793 234.146,321.545 234.256,320.918 236.601 C 320.337 238.774,320.188 238.856,316.853 238.856 C 313.031 238.856,313.082 239.044,315.191 232.725 C 316.135 229.899,318.183 223.689,319.744 218.926 C 321.304 214.163,322.675 210.114,322.791 209.927 C 323.106 209.417,329.525 209.490,329.954 210.008 M353.159 220.829 C 353.219 228.316,353.368 232.047,353.620 232.351 C 353.905 232.694,355.366 232.801,359.798 232.801 C 366.649 232.801,366.432 232.686,366.290 236.218 L 366.190 238.688 356.770 238.688 L 347.351 238.688 347.263 224.559 C 347.159 207.845,346.816 209.536,350.289 209.658 L 353.070 209.756 353.159 220.829 M80.932 215.836 C 80.328 216.440,80.172 221.821,80.733 222.708 C 81.210 223.461,86.651 223.375,87.841 222.596 C 89.945 221.217,89.863 217.282,87.702 215.965 C 86.292 215.105,81.750 215.018,80.932 215.836 M176.703 215.530 C 176.113 215.768,176.111 222.562,176.701 222.927 C 177.423 223.373,182.413 223.073,183.236 222.534 C 185.169 221.267,185.056 217.426,183.045 216.075 C 181.939 215.332,178.027 214.995,176.703 215.530 M87.324 217.470 C 87.868 218.013,87.985 220.353,87.468 220.353 C 87.283 220.353,87.132 220.580,87.132 220.858 C 87.132 221.258,86.646 221.362,84.777 221.362 C 82.670 221.362,82.422 221.294,82.422 220.710 C 82.422 220.350,82.271 219.963,82.086 219.849 C 81.618 219.560,81.664 217.882,82.153 217.393 C 82.737 216.808,86.722 216.868,87.324 217.470 M182.277 217.833 C 183.914 219.715,182.886 221.356,180.067 221.360 L 177.965 221.362 177.965 219.176 L 177.965 216.989 179.754 216.989 C 181.245 216.989,181.666 217.130,182.277 217.833 M52.654 220.563 C 52.374 221.233,52.145 221.927,52.145 222.105 C 52.145 222.284,51.813 223.571,51.408 224.966 C 50.521 228.016,50.791 228.427,53.682 228.427 C 56.334 228.427,56.459 228.094,55.351 223.964 C 53.993 218.899,53.571 218.367,52.654 220.563 M206.226 220.180 C 203.791 226.583,203.988 228.427,207.105 228.427 C 210.226 228.427,210.223 228.453,208.010 221.110 C 207.431 219.189,206.739 218.829,206.226 220.180 M325.765 220.101 C 323.155 226.069,323.348 228.427,326.447 228.427 C 329.309 228.427,329.451 228.055,328.213 223.791 C 326.848 219.093,326.461 218.509,325.765 220.101 M53.884 225.397 C 54.004 226.654,53.955 226.743,53.163 226.719 C 52.695 226.704,52.502 226.616,52.733 226.522 C 52.971 226.427,53.154 225.770,53.154 225.015 C 53.154 223.316,53.714 223.609,53.884 225.397 M326.997 225.588 C 326.997 226.528,326.869 226.745,326.313 226.745 C 325.740 226.745,325.685 226.639,325.976 226.094 C 326.168 225.737,326.325 225.122,326.325 224.729 C 326.325 224.336,326.476 224.108,326.661 224.222 C 326.846 224.336,326.997 224.951,326.997 225.588 M207.344 225.652 C 207.503 226.485,207.435 226.745,207.056 226.745 C 206.550 226.745,206.335 225.064,206.784 224.615 C 207.077 224.322,207.099 224.364,207.344 225.652 " stroke="none" fill="#926e23" fill-rule="evenodd"></path><path id="path4" d="M197.464 54.247 C 196.489 55.959,195.430 57.813,195.109 58.368 C 183.566 78.332,182.607 80.038,182.734 80.373 C 182.794 80.532,186.643 84.653,191.289 89.532 C 201.720 100.487,204.055 103.093,204.921 104.746 L 205.601 106.043 204.894 106.796 C 204.243 107.489,203.593 108.574,201.962 111.690 C 201.623 112.338,201.156 112.989,200.925 113.137 C 200.694 113.285,200.505 113.630,200.505 113.904 C 200.505 114.179,200.278 114.490,200.000 114.597 C 199.722 114.703,199.495 114.994,199.495 115.244 C 199.495 115.493,199.103 116.272,198.622 116.974 C 198.142 117.676,197.317 119.102,196.789 120.143 C 196.260 121.183,195.593 122.125,195.307 122.235 C 195.020 122.345,194.786 122.719,194.786 123.066 C 194.786 123.413,194.486 123.968,194.120 124.299 C 193.461 124.896,193.464 124.913,194.493 126.212 C 196.195 128.360,203.911 133.304,205.677 133.377 C 206.670 133.419,207.590 133.759,208.608 134.461 C 209.425 135.023,211.379 136.279,212.952 137.252 C 214.525 138.224,216.341 139.359,216.989 139.774 C 219.501 141.383,229.489 147.625,242.052 155.439 C 249.268 159.927,257.973 165.347,261.396 167.482 C 273.811 175.228,275.812 176.383,275.325 175.522 C 274.743 174.493,273.749 173.678,273.232 173.805 C 272.921 173.882,271.833 173.421,270.816 172.781 C 269.798 172.141,268.284 171.210,267.452 170.710 C 265.464 169.519,255.354 163.151,249.645 159.495 C 247.160 157.904,244.964 156.541,244.767 156.466 C 244.569 156.391,243.939 155.974,243.366 155.541 C 242.794 155.107,242.235 154.752,242.125 154.752 C 242.014 154.752,238.878 152.784,235.156 150.378 C 231.433 147.973,228.332 146.005,228.266 146.005 C 228.011 146.005,222.616 142.187,221.793 141.424 C 221.317 140.983,220.799 140.622,220.641 140.622 C 220.483 140.622,220.353 140.395,220.353 140.118 C 220.353 139.837,220.652 139.613,221.026 139.613 C 221.396 139.613,221.699 139.391,221.699 139.119 C 221.699 138.847,222.002 138.085,222.372 137.426 C 222.742 136.768,223.045 135.927,223.045 135.558 C 223.045 135.151,223.377 134.760,223.886 134.567 C 224.348 134.391,224.727 134.045,224.727 133.797 C 224.727 133.550,225.181 132.912,225.736 132.380 C 226.354 131.788,226.745 131.072,226.745 130.532 C 226.745 129.875,226.981 129.566,227.670 129.318 C 228.831 128.901,228.673 128.759,241.979 142.136 C 267.587 167.881,273.311 173.563,273.472 173.402 C 273.567 173.307,268.726 168.277,262.713 162.224 C 241.318 140.689,233.474 132.225,233.474 130.677 C 233.474 130.428,234.117 129.936,234.903 129.582 C 235.690 129.228,236.700 128.540,237.149 128.052 C 237.597 127.565,238.102 127.166,238.269 127.166 C 238.437 127.166,239.221 126.636,240.012 125.988 C 240.802 125.341,241.545 124.811,241.664 124.811 C 242.112 124.811,243.566 123.323,243.566 122.865 C 243.566 122.200,241.482 118.248,238.914 114.045 C 237.727 112.103,236.489 110.059,236.163 109.504 C 235.550 108.460,232.255 103.068,229.892 99.243 C 225.096 91.477,222.830 87.814,220.525 84.104 C 219.088 81.791,217.651 79.445,217.332 78.890 C 217.013 78.335,215.948 76.594,214.966 75.021 C 213.983 73.448,212.429 70.950,211.512 69.470 C 210.595 67.990,209.509 66.249,209.099 65.601 C 208.689 64.954,207.475 62.986,206.401 61.228 C 201.557 53.300,200.112 51.135,199.662 51.135 C 199.427 51.135,198.438 52.536,197.464 54.247 M201.256 53.743 C 201.898 54.807,203.449 57.342,204.704 59.378 C 211.882 71.023,214.727 75.705,215.279 76.782 C 215.539 77.287,216.030 78.000,216.370 78.365 C 216.711 78.731,216.989 79.158,216.989 79.314 C 216.989 79.470,217.822 80.924,218.839 82.545 C 219.857 84.166,220.690 85.557,220.690 85.636 C 220.690 85.715,221.371 86.842,222.204 88.141 C 223.036 89.440,223.717 90.653,223.717 90.836 C 223.717 91.019,223.869 91.169,224.054 91.169 C 224.239 91.169,224.390 91.396,224.390 91.674 C 224.390 91.951,224.517 92.178,224.673 92.178 C 224.828 92.178,225.154 92.780,225.397 93.515 C 225.639 94.251,226.087 95.121,226.393 95.450 C 227.681 96.838,227.411 97.561,225.603 97.561 C 224.733 97.561,223.045 99.182,223.045 100.018 C 223.045 100.359,222.781 100.589,222.392 100.589 C 222.032 100.589,221.645 100.740,221.531 100.925 C 221.416 101.110,220.939 101.262,220.470 101.262 C 219.900 101.262,219.559 101.485,219.441 101.934 C 219.345 102.304,219.052 102.607,218.792 102.607 C 218.531 102.607,218.174 102.986,217.998 103.448 C 217.777 104.032,217.424 104.289,216.849 104.289 C 216.393 104.289,215.926 104.441,215.812 104.626 C 215.697 104.811,215.764 104.962,215.960 104.962 C 216.156 104.962,216.316 105.114,216.316 105.299 C 216.316 105.484,215.947 105.635,215.495 105.635 C 215.043 105.635,214.580 105.786,214.466 105.971 C 214.352 106.156,214.033 106.308,213.757 106.308 C 213.482 106.308,212.916 106.675,212.500 107.124 C 211.764 107.918,211.712 107.926,210.608 107.391 C 209.415 106.813,183.346 80.856,183.349 80.250 C 183.352 79.889,183.748 79.085,184.933 77.040 C 185.309 76.392,186.567 74.197,187.729 72.161 C 188.891 70.126,190.104 68.007,190.425 67.452 C 190.746 66.897,192.178 64.399,193.608 61.901 C 195.037 59.403,196.572 56.754,197.017 56.013 C 197.463 55.273,198.158 54.024,198.561 53.238 C 199.520 51.366,199.862 51.430,201.256 53.743 M165.392 110.429 C 165.130 110.845,164.270 112.321,163.480 113.709 C 145.293 145.669,144.894 146.447,146.299 147.187 C 146.646 147.369,148.300 148.220,149.976 149.077 C 151.651 149.934,153.721 151.107,154.576 151.684 C 155.432 152.261,156.332 152.733,156.578 152.733 C 156.823 152.733,157.213 152.960,157.443 153.238 C 157.674 153.516,158.046 153.743,158.272 153.743 C 158.676 153.743,161.064 154.940,164.340 156.786 C 165.265 157.308,166.854 158.129,167.872 158.611 C 168.890 159.093,169.950 159.636,170.227 159.818 C 170.505 159.999,171.212 160.369,171.798 160.639 C 172.385 160.909,173.520 161.557,174.321 162.079 C 175.123 162.600,176.611 163.393,177.628 163.841 C 178.646 164.289,179.906 165.000,180.430 165.423 C 180.953 165.845,181.591 166.190,181.849 166.190 C 182.107 166.190,182.854 166.491,183.509 166.859 L 184.701 167.529 185.796 166.368 C 187.082 165.005,191.312 158.163,191.615 156.957 C 191.774 156.325,191.199 154.930,189.221 151.149 C 187.789 148.412,185.710 144.432,184.601 142.304 C 183.492 140.177,182.094 137.527,181.495 136.417 C 180.896 135.307,179.463 132.582,178.312 130.362 C 167.387 109.298,166.737 108.294,165.392 110.429 M169.272 115.896 C 170.591 118.486,172.276 121.741,173.017 123.129 C 173.758 124.516,174.729 126.409,175.173 127.334 C 175.618 128.259,176.154 129.319,176.364 129.689 C 177.290 131.320,177.965 132.899,177.975 133.457 C 177.981 133.790,178.208 134.356,178.480 134.715 C 179.454 136.003,178.562 136.458,177.458 135.237 C 176.777 134.485,175.078 133.558,174.381 133.558 C 174.131 133.558,173.928 133.406,173.928 133.221 C 173.928 133.036,173.503 132.885,172.984 132.885 C 172.348 132.885,171.670 132.502,170.900 131.707 C 170.263 131.050,169.425 130.530,169.003 130.530 C 168.588 130.530,168.155 130.378,168.040 130.193 C 167.926 130.008,167.421 129.857,166.917 129.857 C 166.388 129.857,165.798 129.573,165.517 129.184 C 165.251 128.814,164.789 128.511,164.492 128.511 C 164.195 128.511,163.597 128.133,163.162 127.670 C 162.728 127.208,162.050 126.829,161.657 126.829 C 161.264 126.829,160.798 126.691,160.622 126.521 C 160.447 126.352,159.924 126.163,159.462 126.101 C 158.637 125.990,158.332 123.685,159.069 123.133 C 159.196 123.038,160.041 121.522,160.945 119.765 C 161.850 118.007,162.839 116.190,163.145 115.728 C 163.450 115.265,163.875 114.478,164.089 113.978 C 164.303 113.479,164.879 112.435,165.369 111.659 C 166.420 109.994,166.078 109.623,169.272 115.896 M49.790 210.260 C 49.592 210.630,48.658 213.317,47.715 216.232 C 46.772 219.146,44.750 225.315,43.222 229.941 C 40.067 239.496,40.002 238.844,44.114 238.851 C 47.342 238.857,47.410 238.817,48.104 236.501 C 48.775 234.264,49.044 234.146,53.490 234.146 C 58.046 234.146,58.264 234.250,59.109 236.838 L 59.714 238.688 63.078 238.688 C 66.253 238.688,66.437 238.650,66.339 238.015 C 66.282 237.645,64.876 233.179,63.215 228.091 C 61.554 223.003,59.577 216.947,58.822 214.634 C 57.065 209.254,57.420 209.588,53.461 209.588 C 50.495 209.588,50.112 209.658,49.790 210.260 M74.432 209.970 C 74.109 210.297,74.012 213.657,74.012 224.451 L 74.012 238.507 74.776 238.699 C 75.196 238.804,76.596 238.845,77.888 238.789 L 80.235 238.688 80.330 234.336 C 80.439 229.339,80.550 229.100,82.776 229.100 C 84.789 229.100,84.876 229.188,87.484 233.879 C 90.414 239.148,90.059 238.856,93.556 238.856 C 97.660 238.856,97.688 239.452,93.231 231.970 C 90.469 227.332,90.478 227.371,91.926 226.377 C 97.466 222.577,96.476 213.375,90.215 210.481 C 88.285 209.589,75.227 209.167,74.432 209.970 M105.121 209.995 C 105.030 210.234,104.994 216.787,105.042 224.559 L 105.130 238.688 107.990 238.688 L 110.849 238.688 110.849 224.222 L 110.849 209.756 108.069 209.658 C 106.034 209.587,105.243 209.677,105.121 209.995 M122.273 210.009 C 122.185 210.240,122.151 216.787,122.200 224.559 L 122.288 238.688 125.147 238.688 L 128.007 238.688 128.175 230.221 C 128.386 219.618,128.438 219.534,131.580 224.771 C 134.260 229.239,137.584 234.655,139.046 236.936 L 140.296 238.884 142.898 238.786 L 145.500 238.688 145.500 224.222 L 145.500 209.756 142.641 209.756 L 139.781 209.756 139.613 217.214 C 139.386 227.272,139.614 227.256,133.748 217.633 C 131.378 213.745,129.219 210.344,128.951 210.076 C 128.306 209.431,122.517 209.373,122.273 210.009 M170.062 210.320 C 169.957 210.750,169.914 217.309,169.965 224.895 L 170.059 238.688 172.718 238.787 C 176.143 238.915,176.082 239.001,176.283 233.710 L 176.451 229.268 179.983 229.075 C 183.452 228.885,183.838 228.809,185.870 227.908 C 192.404 225.011,192.374 213.941,185.824 210.724 C 183.879 209.769,183.760 209.755,177.052 209.647 L 170.252 209.539 170.062 210.320 M203.379 209.900 C 203.183 210.217,198.963 222.889,195.818 232.606 C 193.715 239.105,193.657 238.856,197.271 238.856 C 200.521 238.856,201.177 238.687,201.177 237.852 C 201.177 237.045,202.171 234.710,202.645 234.404 C 202.856 234.268,204.879 234.154,207.141 234.151 C 211.756 234.146,211.723 234.128,212.627 237.006 C 213.186 238.786,213.317 238.845,216.717 238.851 C 220.362 238.857,220.290 239.022,218.709 234.254 C 217.983 232.067,215.995 225.963,214.289 220.690 C 210.369 208.566,211.048 209.588,206.909 209.588 C 205.074 209.588,203.485 209.728,203.379 209.900 M227.833 210.163 C 227.537 210.767,227.609 237.647,227.910 238.436 C 228.032 238.758,230.225 238.856,237.296 238.856 C 247.728 238.856,246.930 239.097,246.930 235.947 C 246.930 232.715,247.108 232.801,240.378 232.801 C 236.063 232.801,234.451 232.690,234.250 232.380 C 234.101 232.149,233.902 226.964,233.810 220.858 L 233.642 209.756 230.885 209.659 C 228.512 209.575,228.088 209.645,227.833 210.163 M255.500 209.995 C 255.408 210.234,255.373 216.787,255.421 224.559 L 255.509 238.688 258.368 238.688 L 261.228 238.688 261.228 224.222 L 261.228 209.756 258.447 209.658 C 256.413 209.587,255.622 209.677,255.500 209.995 M270.735 209.997 C 270.655 210.234,270.704 210.883,270.843 211.438 C 271.377 213.573,274.669 225.736,276.168 231.119 C 276.554 232.506,277.107 234.653,277.397 235.889 C 278.089 238.840,278.186 238.900,282.120 238.785 L 285.418 238.688 285.884 237.006 C 286.141 236.081,286.509 234.718,286.703 233.978 C 287.082 232.530,287.349 231.562,288.096 228.932 C 288.358 228.007,288.915 225.963,289.333 224.390 C 290.708 219.211,291.248 219.421,292.921 225.786 C 296.810 240.584,295.865 238.856,300.076 238.856 C 301.909 238.856,303.479 238.742,303.566 238.602 C 303.653 238.461,304.127 236.834,304.620 234.985 C 305.112 233.136,305.746 230.791,306.028 229.773 C 306.309 228.755,307.215 225.425,308.041 222.372 C 308.866 219.319,309.854 215.685,310.236 214.298 C 310.617 212.910,310.949 211.320,310.974 210.765 L 311.018 209.756 308.041 209.658 C 304.740 209.550,304.276 209.745,303.952 211.377 C 303.450 213.908,300.710 224.974,300.381 225.797 C 299.568 227.835,299.238 227.074,296.044 215.812 C 294.121 209.029,294.572 209.588,291.030 209.588 C 288.942 209.588,287.943 209.723,287.678 210.043 C 287.308 210.489,285.772 215.562,283.420 224.110 C 282.257 228.336,281.767 227.697,279.768 219.344 C 278.904 215.736,277.995 212.103,277.747 211.270 L 277.297 209.756 274.088 209.660 C 271.705 209.589,270.842 209.676,270.735 209.997 M322.791 209.927 C 322.675 210.114,321.304 214.163,319.744 218.926 C 318.183 223.689,316.135 229.899,315.191 232.725 C 313.082 239.044,313.031 238.856,316.853 238.856 C 320.188 238.856,320.337 238.774,320.918 236.601 C 321.545 234.256,321.793 234.146,326.476 234.146 C 331.193 234.146,331.206 234.153,332.055 236.973 L 332.571 238.688 335.725 238.785 C 339.740 238.909,339.702 238.969,338.319 234.787 C 337.682 232.862,335.616 226.594,333.727 220.858 C 331.838 215.122,330.138 210.240,329.950 210.008 C 329.526 209.490,323.106 209.417,322.791 209.927 M347.342 209.995 C 347.250 210.234,347.215 216.787,347.263 224.559 L 347.351 238.688 356.770 238.688 L 366.190 238.688 366.290 236.218 C 366.432 232.686,366.649 232.801,359.798 232.801 C 355.366 232.801,353.905 232.694,353.620 232.351 C 353.368 232.047,353.219 228.316,353.159 220.829 L 353.070 209.756 350.289 209.658 C 348.255 209.587,347.464 209.677,347.342 209.995 M56.559 210.233 C 56.827 210.269,57.695 212.797,61.879 225.736 C 63.764 231.564,65.449 236.681,65.622 237.106 C 66.165 238.435,66.014 238.520,63.123 238.520 L 60.309 238.520 59.587 236.539 C 58.569 233.749,58.416 233.670,53.868 233.572 C 48.947 233.467,48.502 233.663,47.595 236.341 L 46.913 238.352 44.146 238.449 C 40.650 238.573,40.478 240.066,45.824 223.815 L 50.274 210.288 52.471 210.190 C 54.351 210.107,55.699 210.121,56.559 210.233 M90.160 211.110 C 95.553 213.863,96.854 222.699,92.279 225.501 C 92.036 225.650,91.442 226.112,90.959 226.528 L 90.079 227.284 90.734 228.613 C 91.094 229.343,92.116 231.152,93.004 232.632 C 96.816 238.984,96.783 238.520,93.429 238.518 L 90.664 238.515 89.319 236.108 C 88.579 234.784,87.437 232.725,86.782 231.531 C 85.370 228.960,84.325 228.277,82.173 228.520 C 79.980 228.767,79.912 228.922,79.789 234.008 L 79.678 238.548 77.266 238.450 L 74.853 238.352 74.765 224.321 L 74.677 210.290 77.120 210.156 C 82.651 209.853,88.541 210.283,90.160 211.110 M128.692 210.384 C 128.699 210.409,129.266 211.297,129.953 212.358 C 130.640 213.419,131.203 214.360,131.203 214.449 C 131.203 214.538,132.002 215.865,132.978 217.398 C 133.954 218.931,135.491 221.422,136.393 222.935 C 139.451 228.061,139.986 227.298,140.012 217.770 C 140.034 209.459,139.814 210.038,142.860 210.261 L 145.164 210.429 145.259 223.717 C 145.375 239.849,145.593 238.577,142.734 238.451 L 140.493 238.352 138.119 234.461 C 129.183 219.822,129.417 220.156,128.392 220.549 C 128.087 220.666,127.826 221.010,127.810 221.314 C 127.794 221.618,127.738 225.500,127.685 229.941 C 127.632 234.382,127.569 238.129,127.545 238.267 C 127.521 238.406,126.442 238.520,125.147 238.520 C 123.852 238.520,122.789 238.406,122.786 238.267 C 122.772 237.750,122.765 212.735,122.779 211.539 L 122.792 210.294 124.727 210.170 C 126.310 210.069,128.640 210.195,128.692 210.384 M185.431 211.047 C 191.606 214.119,192.017 223.530,186.130 227.098 C 184.343 228.181,184.007 228.260,180.470 228.428 C 175.482 228.665,175.610 228.532,175.610 233.487 C 175.610 238.696,175.705 238.520,172.882 238.520 L 170.563 238.520 170.563 224.414 L 170.563 210.308 171.320 210.200 C 173.861 209.839,184.257 210.463,185.431 211.047 M278.182 215.249 C 278.809 217.964,279.507 220.791,279.733 221.531 C 279.960 222.271,280.345 223.764,280.590 224.850 C 281.498 228.878,282.737 228.418,284.108 223.542 C 286.567 214.800,287.980 210.262,288.246 210.252 C 294.448 210.009,293.758 209.656,294.854 213.627 C 295.338 215.384,295.863 217.199,296.020 217.662 C 296.177 218.124,296.470 219.108,296.671 219.849 C 299.495 230.253,299.952 230.265,302.459 219.992 C 303.381 216.213,304.304 212.477,304.509 211.690 L 304.881 210.261 307.827 210.261 L 310.772 210.261 310.112 212.700 C 309.749 214.041,309.294 215.744,309.102 216.484 C 308.910 217.225,308.633 218.209,308.487 218.671 C 308.268 219.360,306.564 225.702,304.735 232.632 C 304.539 233.373,304.263 234.357,304.120 234.819 C 303.977 235.282,303.686 236.304,303.473 237.090 L 303.085 238.520 299.965 238.520 L 296.844 238.520 295.771 234.399 C 295.180 232.132,294.382 229.142,293.998 227.754 C 293.613 226.367,293.046 224.232,292.738 223.010 C 291.495 218.079,290.315 218.418,288.821 224.135 C 284.743 239.742,285.349 238.520,281.700 238.520 C 278.394 238.520,278.762 238.974,277.208 232.969 C 276.682 230.934,275.780 227.573,275.204 225.500 C 273.388 218.967,271.152 210.617,271.152 210.369 C 271.152 210.229,275.347 210.091,276.200 210.203 C 276.994 210.306,277.108 210.597,278.182 215.249 M110.601 224.306 L 110.513 238.352 108.084 238.450 C 105.789 238.543,105.646 238.506,105.483 237.777 C 105.343 237.153,105.450 210.635,105.593 210.345 C 105.616 210.299,106.772 210.261,108.162 210.261 L 110.689 210.261 110.601 224.306 M213.011 218.671 C 214.486 223.204,215.828 227.216,215.993 227.586 C 216.158 227.956,216.685 229.546,217.165 231.119 C 217.645 232.691,218.331 234.826,218.691 235.863 C 219.640 238.603,219.709 238.520,216.494 238.520 L 213.644 238.520 213.125 236.754 C 212.238 233.735,211.751 233.474,207.032 233.474 C 202.796 233.474,201.677 233.936,201.190 235.887 C 200.583 238.317,200.547 238.342,197.526 238.449 C 194.142 238.570,194.131 239.539,197.633 228.864 C 199.199 224.091,201.205 217.951,202.091 215.221 L 203.701 210.256 207.015 210.343 L 210.329 210.429 213.011 218.671 M233.446 221.419 C 233.450 228.954,233.569 232.695,233.815 232.941 C 234.040 233.167,236.471 233.345,240.218 233.411 L 246.257 233.516 246.257 236.018 L 246.257 238.520 237.365 238.520 C 229.185 238.520,228.459 238.473,228.302 237.931 C 228.162 237.445,228.187 231.286,228.409 211.859 L 228.427 210.261 230.934 210.261 L 233.440 210.261 233.446 221.419 M260.979 224.306 L 260.892 238.352 258.368 238.352 L 255.845 238.352 255.757 224.306 L 255.670 210.261 258.368 210.261 L 261.067 210.261 260.979 224.306 M331.709 216.316 C 332.770 219.554,334.794 225.729,336.205 230.037 C 337.617 234.345,338.772 238.023,338.772 238.208 C 338.772 238.945,332.904 238.425,332.789 237.679 C 332.227 234.002,331.273 233.447,325.760 233.590 C 321.359 233.705,321.165 233.811,320.401 236.536 L 319.844 238.520 317.029 238.520 C 313.615 238.520,313.696 238.857,315.698 232.969 C 316.516 230.563,318.523 224.467,320.157 219.421 L 323.129 210.246 326.454 210.337 L 329.779 210.429 331.709 216.316 M352.902 221.511 C 352.902 230.142,353.000 232.824,353.322 233.033 C 353.553 233.183,356.392 233.381,359.630 233.474 L 365.517 233.642 365.517 235.997 L 365.517 238.352 356.794 238.441 C 350.039 238.511,348.009 238.435,347.800 238.105 C 347.651 237.871,347.527 231.510,347.524 223.970 L 347.519 210.261 350.210 210.261 L 352.902 210.261 352.902 221.511 M80.404 215.283 C 79.626 215.799,79.475 221.762,80.210 222.885 C 80.809 223.799,85.668 224.129,87.615 223.389 C 89.904 222.519,90.637 218.248,88.842 216.237 C 87.802 215.073,81.751 214.388,80.404 215.283 M176.013 215.374 C 175.344 216.044,175.472 222.522,176.169 223.219 C 177.292 224.343,182.842 223.801,184.048 222.451 C 185.744 220.552,185.357 216.716,183.351 215.531 C 182.190 214.845,176.661 214.727,176.013 215.374 M87.702 215.965 C 89.865 217.284,89.944 221.210,87.837 222.604 C 86.649 223.389,81.216 223.469,80.734 222.708 C 80.119 221.737,80.327 216.058,80.992 215.670 C 82.075 215.040,86.504 215.234,87.702 215.965 M183.045 216.075 C 185.094 217.452,185.164 221.270,183.165 222.580 C 182.135 223.255,178.447 223.567,177.208 223.085 L 176.283 222.725 176.283 219.212 C 176.283 215.183,176.126 215.371,179.513 215.334 C 181.471 215.312,182.108 215.446,183.045 216.075 M52.513 219.284 C 52.218 219.836,51.114 223.650,50.499 226.241 C 49.972 228.465,50.569 228.868,54.139 228.698 C 56.917 228.565,57.201 228.166,56.409 225.506 C 56.089 224.430,55.665 222.944,55.468 222.204 C 54.575 218.866,53.373 217.678,52.513 219.284 M205.875 219.543 C 204.421 223.369,203.571 228.032,204.250 228.462 C 204.953 228.908,209.390 228.827,209.857 228.360 C 210.496 227.721,209.794 224.096,208.160 219.596 C 207.705 218.342,206.344 218.311,205.875 219.543 M325.490 218.997 C 325.379 219.176,324.983 220.425,324.610 221.772 C 322.622 228.945,322.569 228.750,326.510 228.759 C 329.661 228.765,330.187 228.180,329.358 225.592 C 329.175 225.023,328.641 223.234,328.169 221.615 C 327.321 218.702,326.293 217.698,325.490 218.997 M54.116 219.933 C 54.288 220.257,54.844 222.070,55.351 223.964 C 56.459 228.094,56.334 228.427,53.682 228.427 C 50.791 228.427,50.521 228.016,51.408 224.966 C 51.813 223.571,52.145 222.284,52.145 222.105 C 52.145 220.461,53.565 218.896,54.116 219.933 M208.093 221.278 C 208.392 222.342,208.912 224.162,209.250 225.322 C 210.021 227.974,209.707 228.427,207.105 228.427 C 204.607 228.427,203.956 227.877,204.468 226.196 C 204.686 225.480,205.186 223.759,205.580 222.372 C 206.679 218.500,207.245 218.254,208.093 221.278 M326.894 219.765 C 327.043 219.996,327.637 221.808,328.213 223.791 C 329.451 228.055,329.309 228.427,326.447 228.427 C 323.497 228.427,323.333 228.080,324.441 224.177 C 325.771 219.490,326.207 218.704,326.894 219.765 " stroke="none" fill="#e79932" fill-rule="evenodd"></path></g></svg>